<svg xmlns="http://www.w3.org/2000/svg" width="53" height="86" fill="none" xmlns:v="https://vecta.io/nano"><g clip-path="url(#A)"><g stroke="#002951" stroke-width="2" stroke-miterlimit="10"><path d="M51.972 28.01c0-14.912-12.302-26.896-27.122-25.951-13.042.84-23.494 11.952-23.813 25.29-.195 8.112 3.248 15.395 8.777 20.295 2.364 2.088 3.792 5.069 3.792 8.259v3.694c0 3.736 2.97 6.769 6.629 6.769h12.98c3.659 0 6.629-3.033 6.629-6.769v-4.103c0-3.064 1.285-5.992 3.535-8.017 5.272-4.764 8.592-11.722 8.592-19.476v.011z" fill="#ffe1cc"/><g fill="#002951"><path d="M33.319 70.216H19.671c-1.442 0-2.61 1.193-2.61 2.665s1.169 2.665 2.61 2.665h13.648c1.442 0 2.61-1.193 2.61-2.665s-1.169-2.665-2.61-2.665z"/></g></g><path d="M26.494 85.957c3.895 0 7.05-3.222 7.05-7.199H19.434c0 3.977 3.155 7.199 7.05 7.199h.01z" fill="#002951"/><path d="M36.331 26.415L28.479 58.83c-.514 2.109-3.453 2.109-3.967 0L16.66 26.415h7.153l2.014-7.304 2.014 15.29 3.124-7.986h5.365z" stroke="#9e0000" stroke-width="2" stroke-linejoin="round"/></g><defs><clipPath id="A"><path fill="#fff" transform="translate(0 .957)" d="M0 0h53v85H0z"/></clipPath></defs></svg>