<svg xmlns="http://www.w3.org/2000/svg" viewBox="0 0 366.64 368.44" xmlns:v="https://vecta.io/nano"><path d="M184.07 131.79c-.59 6.51-.67 12.78-1.82 18.84-1.77 9.35-6.28 17.49-12.51 24.72a9.2 9.2 0 0 0-2 5.22c-.26 5.23-.16 10.48 0 15.72 0 1 .63 2.59 1.37 2.87l36.09 13.44v-78.95c0-5.74 1.28-7 7-7q73.74 0 147.47 0c5.69 0 7 1.28 7 7.06V361.3c0 6-1.21 7.14-7.24 7.14H7.2c-6 0-7.19-1.17-7.19-7.19q0-43.23 0-86.47c0-27.62 14.38-48.09 40.33-57.68l48.62-18c2.39-.86 3.53-2 3-4.54a4.2 4.2 0 0 1 0-1.12c.87-8.53-.74-15.67-7.09-22.55-7.86-8.53-10.55-19.85-10.8-31.52-.06-2.36 0-4.72 0-7.49-9.83.42-18.06-2.7-23-11.5s-3.83-17.21 1.46-24.66c-.52-2.44-1.24-4.3-1.27-6.17-.12-8-.15-16 0-24 .24-14.83 6.88-25.92 19.68-33.43a5 5 0 0 0 2.12-3.62c.2-7.61.07-15.22.11-22.83 0-4.2 1.46-5.68 5.57-5.68h67.75c14.657.094 27.232 10.468 30.11 24.84.5 2.35 1.39 3.2 3.75 3.62 14.888 2.832 25.788 15.66 26.18 30.81.18 10.23.77 20.54-.27 30.66-.49 4.74.89 8.18 2.28 12.19 4.9 14.16-5.61 29.09-20.62 29.57-1.39.15-2.75.11-3.85.11zm54.66 49.29l.07 46.95a5.11 5.11 0 0 0 1.56 3.1c11.66 11.9 17.36 26.15 17.29 42.8q-.09 25.83 0 51.64a38.65 38.65 0 0 0 .55 4.78c.48 3.7 2.38 4.78 6.24 4.69 14.59-.3 29.19-.12 43.78-.12h4c2.8-11.46 9.88-18.21 20.7-20.87V181.11c-11.67-3.6-14.81-6.73-21.06-21l-50.42.07a3.06 3.06 0 0 0-2.27 1.7c-2.96 10.35-9.83 16.46-20.44 19.2zM70.47 215.5l-26.89 10Q8.97 238.55 9 275.5q0 40.05 0 80.09v3.69h47.8v-67.15c0-1.25-.41-2.82.19-3.66 1-1.47 2.8-3.52 4.13-3.44 1.6.11 3.27 2 4.49 3.5.57.67.17 2.16.17 3.28q0 31.82 0 63.62v3.77h36.55l4.85-110.31-13.45 7.8c-5.13 3-7.15 2.22-9.23-3.36L70.47 215.5zm80 32.17l4.92 111.6h36.52v-30.85-37.81c0-3.12.93-5.5 4.36-5.86 2.82-.29 4.56 2.06 4.66 5.93v2.24 66.31h47.6l-.11-88.55c-.22-16.4-7.25-30.26-21.43-38.46-11.79-6.82-25-11.14-37.81-16.66l-14.13 38.06c-1.92 5.13-4 5.9-8.78 3.18l-15.77-9.13zm64.16-111.9c-.13.28-.41.6-.41.92q-.06 38.75 0 77.48a2.92 2.92 0 0 0 1.36 2.21c4.59 2.07 9.26 4 13.92 5.91a1.67 1.67 0 0 0 .14-.42q0-21.7.06-43.42c0-4.53 1.19-5.79 5.57-6.17 8.317-.5 14.966-7.106 15.52-15.42.45-4.57 1.57-5.69 6.08-5.69q29 0 58 0c4.51 0 5.7 1.17 6.1 5.66.551 8.309 7.179 14.921 15.49 15.45 4.44.38 5.6 1.6 5.6 6.13q0 69.06 0 138.12c0 4.79-1 5.81-5.82 6.27a16.71 16.71 0 0 0-15.23 14.94c-.51 5.34-1.39 6.17-6.73 6.17h-56.5v15.24h99.67V135.77zm-85.65-53.39q-17.56 0-35.15 0c-7.41 0-10.74 3.3-10.75 10.67v45.26a48.8 48.8 0 0 0 .94 9.65c5 23.56 25.92 38.58 50.47 36.27 21.8-2 39.54-21.61 40-44.56.3-15.83.13-31.67.06-47.5 0-6.51-3.47-9.77-10-9.79h-35.57zM82.46 9c0 10.12-1 20.06.21 29.71C85.23 58.93 101.9 73 122.32 73.34h41.89c8.67-.07 14.74 3.62 18.32 11.53a3.32 3.32 0 0 0 2.2 1.84c4.18.18 8.38.09 12.82.09V61.4c0-14.17-9.4-23.89-23.62-24.61-3.95-.2-5.24-1.47-5.52-5.46-1-13.69-10.19-22.28-24-22.29Q115.05 9 85.73 9zm64 350.27l-4.89-112.21c-.14-3.51-1.29-5.28-4.16-7.3-5.23-3.68-9.37-3.72-14.94-.21-4.73 3-6.33 6.09-6.53 11.46l-4.23 99.09c-.13 3.05 0 6.11 0 9.17zm-45.28-173.03l-.15.8c-1.42 8.15 1 14.27 8 19.34 7.4 5.31 13.87 11.93 20.83 18.05l27.38-24.26a3.94 3.94 0 0 0 1.34-2.42c.13-4.15.06-8.32.06-12.82-19.09 11.07-38.03 11.48-57.46 1.31zM78.92 212.4l13 34.89 30.3-17.62-25.51-22.36a3.16 3.16 0 0 0-2.6-.54c-5.03 1.75-9.98 3.67-15.19 5.63zm88.9 34.91l12.66-34.21-15.07-5.54a3.88 3.88 0 0 0-3.23.5l-24.69 21.61zM73.38 86.69c3-3.7 5.13-7.47 8.29-9.74s7.46-3.1 10.35-4.22c-3.57-4.26-8.21-8.72-11.49-14s-5.1-11.33-7.61-17.14a25.71 25.71 0 0 0-11.26 14.74c-2.93 9.94-.93 20.15-1.54 30.36zm110.3 36c6.68.67 12-1 15.26-6.84a12.71 12.71 0 0 0-1-14.72c-3.55-4.72-8.47-6-14.24-5.05zm-109.78-.07V96.06c-9.21-1.78-16.72 4.47-16.86 13-.16 8.94 7.76 15.11 16.86 13.55z" fill="#303a48"/><path d="M260.25 247.72a25.67 25.67 0 1 1 25.74 25.59c-14.155-.005-25.652-11.435-25.74-25.59zm9 0c.148 9.166 7.67 16.492 16.837 16.399s16.538-7.571 16.501-16.738-7.47-16.584-16.638-16.601a16.7 16.7 0 0 0-16.7 16.92zm21.14 58.86v9.35c-.09 2.77-1.57 4.51-4.39 4.55a4.12 4.12 0 0 1-4.52-4.4q-.18-9.91 0-19.82a4.06 4.06 0 0 1 4.55-4.34c2.85.07 4.28 1.8 4.35 4.57.07 3.36.01 6.73.01 10.09zm0-117.85v9.72c0 3-1.57 4.78-4.57 4.74-2.81 0-4.34-1.8-4.37-4.57v-19.44c0-2.76 1.6-4.55 4.38-4.57 3 0 4.5 1.82 4.55 4.78l.01 9.34zm-161.58-23.94c-9.23-.24-17.22-4-24.4-9.68-2.15-1.71-2.68-4-1-6.25s3.89-2.48 6.26-1c2.62 1.67 5.13 3.54 7.87 5 8 4.2 16 3.92 23.87-.51 2.27-1.27 4.34-2.9 6.49-4.37 2.33-1.58 4.58-1.44 6.27.78a4.21 4.21 0 0 1-.8 6.29c-7.08 5.83-15.03 9.61-24.56 9.74zm22.77-51.93c0 5.28-1.31 7.56-4.42 7.65s-4.61-2.25-4.61-7.79c0-5.37 1.26-7.57 4.38-7.66s4.65 2.31 4.65 7.8zm-36.38.14v1.12c0 4.23-1.56 6.41-4.51 6.41s-4.47-2.09-4.49-6.41v-4.1c0-3 1.6-4.84 4.49-4.84s4.44 1.88 4.5 4.84l.01 2.98z" fill="#ff7200"/></svg>