<svg width="24" height="30" viewBox="0 0 24 30" fill="none" xmlns="http://www.w3.org/2000/svg">
<path d="M22.9837 5.82988C22.9824 4.5922 22.406 3.68449 21.6008 3.48295L21.6029 3.47992L18.473 2.69443L18.471 2.69769C18.2455 2.64121 18.0029 2.63693 17.7487 2.70033L3.03881 6.36799C1.87844 6.65725 0.938801 8.17564 0.940432 9.76014L0.956825 25.5297C0.958069 26.7665 1.53456 27.6741 2.33956 27.8755L2.33754 27.8786L5.46724 28.6641L5.46926 28.6609C5.69473 28.7174 5.93698 28.7215 6.19081 28.6582L20.9008 24.9907C22.0621 24.7011 23.0016 23.1826 23 21.5994L22.9837 5.82988Z" fill="white"/>
<path d="M22.9851 5.82696C22.9838 4.58928 22.4075 3.68157 21.6023 3.48003L21.6044 3.47685L18.4745 2.69143L18.4725 2.69469C18.2469 2.63829 18.0044 2.63401 17.7501 2.69741L3.04028 6.36507C1.87991 6.65433 0.940265 8.17264 0.941897 9.75707L0.946403 14.1485L22.988 8.65295L22.9851 5.82696Z" fill="#FFBE89"/>
<path d="M3.12894 8.12806L1.47559 7.71558C1.14314 8.30606 0.939655 9.02504 0.940432 9.76004L0.943384 12.5797L4.07316 13.3688L4.07114 9.33357C4.07083 8.76313 3.68244 8.26612 3.12894 8.12806Z" fill="#FFBE89"/>
<path d="M4.0865 26.3153L4.07314 13.3691L0.943359 12.5798L0.956723 25.5298C0.958044 26.7667 1.53462 27.6741 2.33953 27.8755L2.33751 27.8787L5.46721 28.6641L5.46923 28.661C4.66432 28.4596 4.08782 27.5521 4.0865 26.3153Z" fill="#C5E6FF"/>
<path d="M22.9837 5.82988C22.9824 4.5922 22.406 3.68449 21.6008 3.48295L21.6029 3.47992L18.473 2.69443L18.471 2.69769C18.2455 2.64121 18.0029 2.63693 17.7487 2.70033L3.03881 6.36799C1.87844 6.65725 0.938801 8.17564 0.940432 9.76014L0.956825 25.5297C0.958069 26.7665 1.53456 27.6741 2.33956 27.8755L2.33754 27.8786L5.46724 28.6641L5.46926 28.6609C5.69473 28.7174 5.93698 28.7215 6.19081 28.6582L20.9008 24.9907C22.0621 24.7011 23.0016 23.1826 23 21.5994L22.9837 5.82988Z" stroke="#303A48" stroke-width="0.776948" stroke-linecap="round" stroke-linejoin="round"/>
<path d="M13.5338 9.3467C13.9466 9.24383 14.2806 8.70401 14.28 8.14095C14.2794 7.5779 13.9444 7.20496 13.5318 7.30783C13.119 7.41078 12.7851 7.95052 12.7856 8.51358C12.7862 9.07655 13.1211 9.44956 13.5338 9.3467Z" fill="#303A48"/>
<path d="M18.7899 8.03615C19.2025 7.93328 19.5365 7.39346 19.536 6.83041C19.5353 6.26735 19.2003 5.89442 18.7878 5.99728C18.375 6.10023 18.0409 6.63998 18.0415 7.20303C18.0421 7.76601 18.3771 8.13902 18.7899 8.03615Z" fill="#303A48"/>
<path d="M18.8326 7.01683C19.267 6.51182 19.5348 5.74357 19.5358 4.82359C19.5377 2.94034 18.4209 1.13549 17.0406 0.791385C16.7395 0.716254 16.4506 0.717109 16.1831 0.78377C15.2344 1.02027 14.5549 2.04654 14.541 3.49742" stroke="#303A48" stroke-width="0.776948" stroke-linecap="round" stroke-linejoin="round"/>
<path d="M13.5767 8.32727C14.0112 7.82226 14.2789 7.05417 14.2799 6.13411C14.2819 4.25086 13.165 2.44609 11.7848 2.1019C11.4835 2.02685 11.1947 2.02763 10.9272 2.09429C9.9785 2.33087 9.29906 3.35706 9.28516 4.80793" stroke="#303A48" stroke-width="0.776948" stroke-linecap="round" stroke-linejoin="round"/>
<path d="M8.27799 10.6572C8.69062 10.5543 9.02463 10.0146 9.02409 9.4515C9.02347 8.88844 8.68853 8.51551 8.27589 8.61838C7.86317 8.72132 7.52916 9.26107 7.52979 9.82412C7.53033 10.3871 7.86527 10.7601 8.27799 10.6572Z" fill="#303A48"/>
<path d="M8.32036 9.63793C8.75483 9.13291 9.02264 8.36467 9.02357 7.44468C9.02551 5.56144 7.90865 3.75659 6.5284 3.41248C6.22718 3.33735 5.93839 3.3382 5.67089 3.40486C4.72216 3.64137 4.04272 4.66764 4.02881 6.11851" stroke="#303A48" stroke-width="0.776948" stroke-linecap="round" stroke-linejoin="round"/>
<g opacity="0.3">
<path d="M20.2325 18.0504C20.5818 17.9633 20.8656 18.2784 20.866 18.755L20.8688 21.3433C20.8692 21.8191 20.5863 22.2764 20.237 22.3635L17.7085 22.9939C17.3591 23.081 17.0759 22.765 17.0754 22.2891L17.0728 19.7008C17.0722 19.2242 17.3546 18.7679 17.7039 18.6808L20.2325 18.0504Z" fill="#FFBE89"/>
</g>
<g opacity="0.3">
<path d="M14.7994 19.4053C15.1487 19.3182 15.4325 19.6334 15.433 20.11L15.4357 22.6983C15.4361 23.1742 15.1532 23.6314 14.8039 23.7185L12.2753 24.3489C11.926 24.436 11.6428 24.1199 11.6424 23.644L11.6396 21.0558C11.6392 20.5791 11.9215 20.1228 12.2709 20.0357L14.7994 19.4053Z" fill="#FFBE89"/>
</g>
<g opacity="0.3">
<path d="M9.36639 20.7601C9.71578 20.673 9.99945 20.9882 9.99999 21.4648L10.0026 24.053C10.0031 24.5289 9.72021 24.9861 9.3709 25.0732L6.84232 25.7036C6.493 25.7907 6.20973 25.4747 6.20926 24.9988L6.20654 22.4105C6.20608 21.9339 6.48842 21.4776 6.83781 21.3905L9.36639 20.7601Z" fill="#FFBE89"/>
</g>
<g opacity="0.3">
<path d="M20.2276 11.5088C20.577 11.4218 20.8607 11.737 20.8612 12.2135L20.8638 14.8018C20.8643 15.2777 20.5815 15.7349 20.2321 15.822L17.7035 16.4524C17.3542 16.5396 17.071 16.2234 17.0705 15.7476L17.0679 13.1595C17.0673 12.6828 17.3497 12.2264 17.6991 12.1393L20.2276 11.5088Z" fill="#FFBE89"/>
</g>
<g opacity="0.3">
<path d="M14.7945 12.8636C15.1439 12.7764 15.4276 13.0916 15.4281 13.5683L15.4308 16.1565C15.4312 16.6323 15.1484 17.0896 14.799 17.1767L12.2705 17.8071C11.9211 17.8943 11.638 17.5782 11.6375 17.1023L11.6348 14.5141C11.6343 14.0374 11.9166 13.5811 12.266 13.494L14.7945 12.8636Z" fill="#FFBE89"/>
</g>
<g opacity="0.3">
<path d="M9.36102 14.2181C9.71041 14.131 9.99408 14.4461 9.99462 14.9228L9.99718 17.511C9.99773 17.9869 9.71476 18.4441 9.36537 18.5312L6.83695 19.1616C6.48763 19.2487 6.20436 18.9327 6.20389 18.4568L6.20117 15.8685C6.20071 15.3919 6.48305 14.9356 6.83244 14.8485L9.36102 14.2181Z" fill="#96D2FF"/>
</g>
</svg>
