<svg xmlns="http://www.w3.org/2000/svg" xmlns:xlink="http://www.w3.org/1999/xlink" width="53.4" height="58.8" xmlns:v="https://vecta.io/nano"><style><![CDATA[.B{fill-rule:evenodd}.C{fill-opacity:0}.D{stroke:#002951}.E{stroke-dasharray:0 0 0 0}.F{stroke-width:2}]]></style><defs><path id="A" d="M0 0h53.4v58.8H0z"/><mask id="B" maskUnits="userSpaceOnUse"><path fill="#000" d="M0 0h53.4v58.8H0z"/><use fill="#fff" xlink:href="#A"/></mask><path id="C" d="M20.5 35.1c6.7 0 12.2-7.2 13.8-14.2.9.6 1.7.5 2.2-1.1.7-2.2 1.1-4.5 1.2-6.8 0-7.9-5.4-12-12.1-12-2.7-.1-5.3.7-7.6 2.2l-1.2-.3c-4.4-.9-8.5.5-9.3 4.6-.3 1.4-.2 2.8.1 4.2-.9 1.7-1.3 3.6-1.3 5.5 0 7.9 6.4 17.9 14.2 17.9z" class="B"/><path id="D" d="M40.7 44.9c-4.4-4.1-10-6.6-15.9-7.1 0 0-1.8 6.6-3.7 6.6-1.9 0-3.6-6.5-3.6-6.5-5.9.6-11.4 3.1-15.7 7.1-1 1-1 2.7.1 3.7 10.5 10.7 27.8 10.8 38.5.3l.3-.3c1-1 1.1-2.7 0-3.8z" class="B"/><circle id="E" cx="39.9" cy="45.2" r="12.6"/></defs><use fill="none" xlink:href="#A"/><g mask="url(#B)"><use fill="#ffe1cc" xlink:href="#C"/><use xlink:href="#C" class="C D E F"/><use fill="#ffe1cc" xlink:href="#D"/><use xlink:href="#D" class="C D E F"/><use fill="#fa6" xlink:href="#E"/><use xlink:href="#E" class="C D E F"/><path fill="#002951" d="M42 48l.8 2.7h2.8l-4.1-11.5h-3l-4.1 11.5H37l.8-2.7H42zm-1.9-6.2l1.3 4.2h-3l1.5-5c.1.2.1.4.2.8z" class="B"/></g></svg>