<svg width="42" height="42" viewBox="0 0 42 42" fill="none" xmlns="http://www.w3.org/2000/svg">
<path d="M9.29874 34.361H5.97924C3.22929 34.361 1 36.5903 1 39.3403V41H14.278V39.3403C14.278 36.5903 12.0487 34.361 9.29874 34.361Z" stroke="#303A48" stroke-width="2" stroke-miterlimit="10" stroke-linecap="round" stroke-linejoin="round"/>
<path d="M36.0209 34.361H32.7014C29.9515 34.361 27.7222 36.5903 27.7222 39.3403V41H41.0001V39.3403C41.0001 36.5903 38.7709 34.361 36.0209 34.361Z" stroke="#303A48" stroke-width="2" stroke-miterlimit="10" stroke-linecap="round" stroke-linejoin="round"/>
<path d="M11.7885 30.2117C11.7885 32.5033 9.93073 34.361 7.63912 34.361C5.3475 34.361 3.48975 32.5033 3.48975 30.2117C3.48975 27.92 5.3475 26.0623 7.63912 26.0623C9.93073 26.0623 11.7885 27.92 11.7885 30.2117Z" stroke="#303A48" stroke-width="2" stroke-miterlimit="10" stroke-linecap="round" stroke-linejoin="round"/>
<path d="M38.5102 30.2117C38.5102 32.5033 36.6524 34.361 34.3608 34.361C32.0692 34.361 30.2114 32.5033 30.2114 30.2117C30.2114 27.92 32.0692 26.0623 34.3608 26.0623C36.6524 26.0623 38.5102 27.92 38.5102 30.2117Z" stroke="#303A48" stroke-width="2" stroke-miterlimit="10" stroke-linecap="round" stroke-linejoin="round"/>
<path d="M21 23.5726V15.9377" stroke="#303A48" stroke-width="2" stroke-miterlimit="10" stroke-linecap="round" stroke-linejoin="round"/>
<path d="M23.4895 26.0622C23.4895 27.4371 22.3748 28.5518 20.9999 28.5518C19.6249 28.5518 18.5103 27.4371 18.5103 26.0622C18.5103 24.6873 19.6249 23.5726 20.9999 23.5726C22.3748 23.5726 23.4895 24.6873 23.4895 26.0622Z" fill="#FF7200" stroke="#303A48" stroke-width="2" stroke-miterlimit="10" stroke-linecap="round" stroke-linejoin="round"/>
<path d="M18.6217 26.8008L11.6025 28.9807" stroke="#303A48" stroke-width="2" stroke-miterlimit="10" stroke-linecap="round" stroke-linejoin="round"/>
<path d="M30.3971 28.9807L23.3779 26.8008" stroke="#303A48" stroke-width="2" stroke-miterlimit="10" stroke-linecap="round" stroke-linejoin="round"/>
<path d="M22.6596 9.29875H19.3401C16.5901 9.29875 14.3608 11.528 14.3608 14.278V15.9377H27.6388V14.278C27.6388 11.528 25.4095 9.29875 22.6596 9.29875Z" stroke="#FF7200" stroke-width="2" stroke-miterlimit="10" stroke-linecap="round" stroke-linejoin="round"/>
<path d="M25.1493 5.14934C25.1493 7.44095 23.2916 9.29871 21 9.29871C18.7083 9.29871 16.8506 7.44095 16.8506 5.14934C16.8506 2.85772 18.7083 0.999968 21 0.999968C23.2916 0.999968 25.1493 2.85772 25.1493 5.14934Z" stroke="#FF7200" stroke-width="2" stroke-miterlimit="10" stroke-linecap="round" stroke-linejoin="round"/>
</svg>
