<svg width="40" height="40" viewBox="0 0 40 40" fill="none" xmlns="http://www.w3.org/2000/svg">
<g clip-path="url(#clip0_17937_79643)">
<path d="M36.7621 10.2994C36.7416 9.21941 36.722 8.1992 36.722 7.21222C36.722 6.84089 36.5745 6.48477 36.3119 6.2222C36.0493 5.95963 35.6932 5.81212 35.3219 5.81212C29.3341 5.81212 24.7752 4.0913 20.9751 0.396519C20.7138 0.142299 20.3636 6.10352e-05 19.9991 6.10352e-05C19.6345 6.10352e-05 19.2843 0.142299 19.023 0.396519C15.2233 4.0913 10.6651 5.81212 4.67773 5.81212C4.3064 5.81212 3.95028 5.95963 3.68771 6.2222C3.42514 6.48477 3.27763 6.84089 3.27763 7.21222C3.27763 8.19938 3.25821 9.21997 3.23749 10.3001C3.04558 20.3502 2.78274 34.1143 19.5405 39.9229C19.8375 40.0259 20.1605 40.0259 20.4574 39.9229C37.2165 34.1142 36.954 20.3497 36.7621 10.2994ZM19.9991 37.1143C5.62719 31.8934 5.84448 20.4564 6.03732 10.3535C6.0489 9.74715 6.0601 9.15948 6.06794 8.58339C11.6758 8.34668 16.1603 6.64732 19.9991 3.30313C23.8384 6.64732 28.3236 8.34686 33.9318 8.58339C33.9397 9.1593 33.9509 9.74659 33.9625 10.3526C34.1551 20.4559 34.3722 31.8932 19.9991 37.1143Z" fill="#303A48"/>
<path d="M24.8205 15.1366L18.0628 21.8938L15.1792 19.0102C14.9151 18.7549 14.5613 18.6136 14.1941 18.6167C13.8268 18.6199 13.4754 18.7671 13.2158 19.0269C12.9561 19.2866 12.8088 19.6379 12.8057 20.0052C12.8026 20.3725 12.944 20.7262 13.1992 20.9903L17.0729 24.8639C17.2027 24.9941 17.3571 25.0973 17.5269 25.1677C17.6968 25.238 17.879 25.2741 18.0628 25.2739C18.2467 25.2741 18.4288 25.238 18.5987 25.1677C18.7686 25.0973 18.9229 24.9941 19.0528 24.8639L26.8002 17.1167C26.9303 16.9867 27.0334 16.8324 27.1038 16.6625C27.1742 16.4927 27.2105 16.3106 27.2105 16.1267C27.2105 15.9429 27.1743 15.7608 27.1039 15.5909C27.0336 15.4211 26.9304 15.2667 26.8004 15.1367C26.5379 14.8742 26.1818 14.7267 25.8105 14.7266C25.4392 14.7266 25.0831 14.874 24.8205 15.1366Z" fill="#FF7200"/>
</g>
<defs>
<clipPath id="clip0_17937_79643">
<rect width="40" height="40" fill="white"/>
</clipPath>
</defs>
</svg>
