<svg width="40" height="45" viewBox="0 0 40 45" fill="none" xmlns="http://www.w3.org/2000/svg">
<g clip-path="url(#clip0_17937_79604)">
<path d="M20.0108 3.07709L3.09668 12.736V32.0469L20.0108 41.7058L36.9178 32.0469V12.736L20.0108 3.07709Z" fill="white" stroke="#444D5A" stroke-width="1.90476" stroke-miterlimit="10"/>
<path d="M37.0383 32.138L20.1313 22.4791" stroke="#444D5A" stroke-width="1.90476" stroke-miterlimit="10"/>
<path d="M3.20996 31.9557L20.124 22.3038" stroke="#444D5A" stroke-width="1.90476" stroke-miterlimit="10"/>
<path d="M20.0103 11.4673L10.4443 16.9347V27.8553L20.0103 33.3156L29.5692 27.8553V16.9347L20.0103 11.4673Z" fill="white" stroke="#444D5A" stroke-width="1.90476" stroke-miterlimit="10"/>
<path d="M20.0037 22.409L3.09668 12.7501" stroke="#444D5A" stroke-width="1.90476" stroke-miterlimit="10"/>
<path d="M19.9468 22.409L36.8609 12.7501" stroke="#444D5A" stroke-width="1.90476" stroke-miterlimit="10"/>
<path d="M3.11062 15.0842C4.43728 15.0842 5.51275 14.0204 5.51275 12.708C5.51275 11.3957 4.43728 10.3318 3.11062 10.3318C1.78396 10.3318 0.708496 11.3957 0.708496 12.708C0.708496 14.0204 1.78396 15.0842 3.11062 15.0842Z" fill="#FF7200" stroke="#444D5A" stroke-width="1.90476" stroke-miterlimit="10"/>
<path d="M3.11062 34.43C4.43728 34.43 5.51275 33.3662 5.51275 32.0539C5.51275 30.7415 4.43728 29.6777 3.11062 29.6777C1.78396 29.6777 0.708496 30.7415 0.708496 32.0539C0.708496 33.3662 1.78396 34.43 3.11062 34.43Z" fill="#FF7200" stroke="#444D5A" stroke-width="1.90476" stroke-miterlimit="10"/>
<path d="M36.8963 15.0842C38.2229 15.0842 39.2984 14.0204 39.2984 12.708C39.2984 11.3957 38.2229 10.3318 36.8963 10.3318C35.5696 10.3318 34.4941 11.3957 34.4941 12.708C34.4941 14.0204 35.5696 15.0842 36.8963 15.0842Z" fill="#FF7200" stroke="#444D5A" stroke-width="1.90476" stroke-miterlimit="10"/>
<path d="M36.8963 34.43C38.2229 34.43 39.2984 33.3662 39.2984 32.0539C39.2984 30.7415 38.2229 29.6777 36.8963 29.6777C35.5696 29.6777 34.4941 30.7415 34.4941 32.0539C34.4941 33.3662 35.5696 34.43 36.8963 34.43Z" fill="#FF7200" stroke="#444D5A" stroke-width="1.90476" stroke-miterlimit="10"/>
<path d="M19.9468 22.3599V41.881" stroke="#444D5A" stroke-width="1.90476" stroke-miterlimit="10"/>
<path d="M19.9468 3.14014L20.0106 11.7967" stroke="#444D5A" stroke-width="1.90476" stroke-miterlimit="10"/>
<path d="M20.0105 44.068C21.3372 44.068 22.4126 43.0041 22.4126 41.6918C22.4126 40.3795 21.3372 39.3156 20.0105 39.3156C18.6839 39.3156 17.6084 40.3795 17.6084 41.6918C17.6084 43.0041 18.6839 44.068 20.0105 44.068Z" fill="#FF7200" stroke="#444D5A" stroke-width="1.90476" stroke-miterlimit="10"/>
<path d="M20.0105 5.45329C21.3372 5.45329 22.4126 4.38944 22.4126 3.07711C22.4126 1.76478 21.3372 0.700928 20.0105 0.700928C18.6839 0.700928 17.6084 1.76478 17.6084 3.07711C17.6084 4.38944 18.6839 5.45329 20.0105 5.45329Z" fill="#FF7200" stroke="#444D5A" stroke-width="1.90476" stroke-miterlimit="10"/>
<path d="M20.0532 22.3248L29.4988 16.9346V27.8552L20.0532 33.2455V22.3248Z" fill="#FF7200" stroke="#444D5A" stroke-width="1.90476" stroke-miterlimit="10"/>
</g>
<defs>
<clipPath id="clip0_17937_79604">
<rect width="40" height="44.7619" fill="white"/>
</clipPath>
</defs>
</svg>
