<svg xmlns="http://www.w3.org/2000/svg" xmlns:xlink="http://www.w3.org/1999/xlink" width="47.8" height="50.5" xmlns:v="https://vecta.io/nano"><style><![CDATA[.B{stroke:#002951}.C{stroke-dasharray:0 0 0 0}.D{stroke-width:2}.E{fill-opacity:0}.F{fill-rule:evenodd}]]></style><defs><path id="A" d="M0 0h47.8v50.5H0z"/><mask id="B" maskUnits="userSpaceOnUse"><path fill="#000" d="M0 0h47.8v50.5H0z"/><use fill="#fff" xlink:href="#A"/></mask><path id="C" d="M26.4 1h-5C10.1 1 1 11.9 1 25.2s9.1 24.2 20.4 24.2h5c11.3 0 20.4-10.9 20.4-24.2S37.6 1 26.4 1z" class="F"/><ellipse id="D" cx="21.4" cy="25.2" rx="20.4" ry="24.2"/><ellipse id="E" cx="21.4" cy="25.2" rx="15.5" ry="18.4"/></defs><use fill="none" xlink:href="#A"/><g mask="url(#B)"><use fill="#c4cdd4" xlink:href="#C"/><use xlink:href="#C" class="B C D E"/><use fill="#c4cdd4" xlink:href="#D"/><use xlink:href="#D" class="B C D E"/><use fill="#fa6" xlink:href="#E"/><use xlink:href="#E" class="B C D E"/><path fill="#002951" d="M27 28.7c0 1.4-.4 2.5-1.3 3.4s-2.1 1.4-3.6 1.5v2.7h-1.5v-2.7c-1.8 0-3.4-.4-4.8-1.1V29c.7.4 1.4.7 2.3 1s1.7.5 2.4.5v-4.1l-.8-.3c-1.5-.7-2.5-1.4-3.1-2.3-.6-.8-.9-1.8-.9-3 0-1.3.4-2.3 1.3-3.2s2-1.3 3.5-1.5v-2H22v2c1.7.1 3.3.5 4.6 1.2l-1.1 3.1a9.74 9.74 0 0 0-3.6-1v3.9c1.5.7 2.5 1.2 3.1 1.7s1.1 1 1.4 1.6c.5.7.6 1.3.6 2.1zm-7.8-7.9a1.69 1.69 0 0 0 .3 1c.2.3.6.5 1.1.8v-3.1c-1 .1-1.4.6-1.4 1.3zm4.1 7.2c.3.2.4.5.4.9 0 .9-.5 1.4-1.5 1.6v-3.3c.5.3.8.5 1.1.8z" class="F"/><path fill="none" d="M35.8 43h5m-2.2-5.1h5m-2.7-5.1h5m-4.1-5.1h4.9m-4.5-5.1h4.9m-6-5h5m-7.4-5.1h5m-3.3-5.1h-5.1" class="B C D"/></g></svg>