<svg xmlns="http://www.w3.org/2000/svg" viewBox="0 0 340.54 383.39" xmlns:v="https://vecta.io/nano"><path d="M19.03 383.39c-.25-.24-.45-.6-.75-.71-13-4.71-18.22-12.1-18.23-25.81q0-48.86 0-97.7a20.69 20.69 0 0 1 .2-4.1c.55-2.61 2.37-4.56 4.93-4.11a10.3 10.3 0 0 1 5.5 3.43c.86 1 .6 3.1.6 4.7q0 42.85 0 85.72v5l120.18-66L11.85 163.47c-.2 2.39-.52 4.38-.53 6.36q-.06 29.38 0 58.77a29.08 29.08 0 0 1-.06 3.37c-.4 3.46-2.81 5.62-6 5.43s-5.14-2.34-5.19-5.74v-22.83-39.3a26.19 26.19 0 0 1 8.51-20.35l18.48-18a7.26 7.26 0 0 0 2.47-5.83V80.43c0-15.64 10.07-25.74 25.67-25.79h46.42a7.51 7.51 0 0 0 5.89-2.37l44.45-43.88c11.43-11.19 25.23-11.2 36.64 0q22.29 21.9 44.56 43.84a7.5 7.5 0 0 0 5.88 2.37h46c16.11 0 26 10 26 26.2v10.85c-.08 3.78-2.3 6.14-5.59 6.12s-5.51-2.44-5.61-6.2 0-7.49 0-11.23c0-9.45-5.07-14.49-14.58-14.49q-93.41 0-186.82 0H55.01c-9.28 0-14.39 5.09-14.4 14.29q0 46.41.08 92.83a7.47 7.47 0 0 0 2 4.79q48.78 48.91 97.67 97.69c1.71 1.72 3 2 5 .74 4-2.43 8.28-4.57 12.4-6.89 8.17-4.58 16.37-4.61 24.59-.23 5.05 2.69 10 5.53 15.37 8.48.83-.76 1.74-1.54 2.59-2.39q48.5-48.37 97-96.74a7.87 7.87 0 0 0 2.56-6.18v-53.9a13.31 13.31 0 0 1 .45-4 5 5 0 0 1 5.76-3.7 5.16 5.16 0 0 1 4.94 4.77 7 7 0 0 1 0 2.23c-1.52 8.21 1.72 14.15 8.11 19.22 4.76 3.78 8.76 8.51 13.18 12.74a25.34 25.34 0 0 1 8.12 19.38v34.43q0 76.93 0 153.85c0 11.88-5.32 20.52-15 24.41-1.77.71-3.63 1.19-5.45 1.77H253.4c-1.83-2.11-4-4.16-2.84-7.35s3.73-3.93 6.9-3.92q29 .11 58 0c7 0 11.56-3.42 13.08-9.79-.48-.3-1-.65-1.52-.95q-74.76-41.07-149.51-82.18c-5.25-2.9-10-2.5-15.17.33Q98.42 314.83 34.43 349.9l-22.75 12.58c2.56 7 6.56 9.7 14.08 9.7h202.58c1.12 0 2.43-.36 3.33.1 1.76.9 4.08 1.95 4.71 3.53s-.45 3.86-1 5.78c-.19.69-1 1.22-1.47 1.82zm309.79-33.88V163.69L209.3 283.85zM122.22 54.39h96.65a5.82 5.82 0 0 0-.68-1.15L179.48 15.3c-5.73-5.54-12.88-5.35-18.63.22l-23.47 23.06c-5.17 5.16-10.14 10.53-15.16 15.81zM20.48 154.04l8.73 9.35v-18.7zm299.27.62l-8.47-9.81v18.89z" fill="#303a48"/><path d="M184.24 178.75c-12.72 9.38-24.39 9-33.9-1a32.35 32.35 0 0 1-8.12-15.73 35.21 35.21 0 0 1 1.76-21.63c6.62-15.72 21.8-20.93 38-13 .13-.17.37-.34.39-.53.47-5 2.22-7.14 5.88-7.06s5.41 2.4 5.4 7.37q0 20.6-.15 41.18c0 3.28.35 6.47 3.59 8a8.11 8.11 0 0 0 9.06-1.68 22.31 22.31 0 0 0 5.45-7.35c11.78-27.32-7.57-50.25-28-56.3a45.31 45.31 0 0 0-55.694 58.768 45.31 45.31 0 0 0 37.224 29.602l4.09.47c3.7.44 5.89 2.87 5.55 6.14s-3 5.25-6.7 5a57.43 57.43 0 0 1-25.89-7.72c-23.171-13.594-33.597-41.6-24.956-67.037s33.969-41.297 60.626-37.963c24.48 3 44.44 22 48.17 46.38 1.77 11.59-.89 22.59-7 32.58a22.45 22.45 0 0 1-16.37 10.71c-8.2 1.2-14.29-2.14-18.41-9.2zm-1.53-25.55c-.67-3-1-6.15-2.09-9-1.78-4.93-4.94-8.68-10.54-9.44-5.79-.79-10.2 1.71-13.57 6.18-6 8-5.09 21.84 1.91 29.07 6.05 6.25 14.06 5.78 19.27-1.22 3.4-4.6 4.69-9.86 5.02-15.59z" fill="#ff7200"/><path d="M20.48 154.04l8.73-9.32v18.67zm299.27.62l-8.47 9.08v-18.89z" fill="#f4f4f4"/></svg>