<svg fill="none" height="59" width="57" xmlns:xlink="http://www.w3.org/1999/xlink" xmlns="http://www.w3.org/2000/svg"><style>.B{stroke-width:2}.C{stroke-miterlimit:10}.D{stroke:#002951}</style><g clip-path="url(#B)"><mask height="55" width="55" y="1" x="1" maskUnits="userSpaceOnUse" id="A"><path fill="#fff" d="M28.12 55.34c14.978 0 27.12-12.142 27.12-27.12S43.098 1.1 28.12 1.1 1 13.242 1 28.22s12.142 27.12 27.12 27.12z"></path></mask><g class="B C" mask="url(#A)"><use class="D" fill="#ffe1cc" xlink:href="#C"></use><path stroke="#fff" d="M1.221 24.27c27.56-17.51 54.03-1.34 54.03 5.36"></path><path class="D" d="M1.221 22.86c27.56-17.51 54.03-1.34 54.03 5.36"></path><path stroke="#fff" d="M54.82 30.51C29.86 45.96 6.2 44.24 1.92 36.25"></path><path stroke="#fff" d="M23.371 54.58c-26.57-24.32-7.65-52.59 1.37-53.59"></path><path class="D" d="M21.661 54.63c-26.54-24.07-7.59-52.09 1.43-53.09"></path><path class="D" d="M54.82 31.93C29.86 47.37 6.2 45.66 1.92 37.66"></path><path class="D" fill="#9e0000" d="M44.279 22.76a4.24 4.24 0 1 0 0-8.48 4.24 4.24 0 1 0 0 8.48z"></path><path class="D" fill="#002951" d="M17.95 46.87a3.6 3.6 0 1 0 0-7.2 3.6 3.6 0 1 0 0 7.2z"></path><path class="D" fill="#fa6" d="M9.57 23.3a4.48 4.48 0 1 0 0-8.96 4.48 4.48 0 1 0 0 8.96z"></path></g><g class="B D"><g class="C"><use xlink:href="#C"></use><path fill="#fa6" d="M45.651 57.29c5.49 0 9.94-4.45 9.94-9.94s-4.45-9.94-9.94-9.94-9.94 4.45-9.94 9.94 4.45 9.94 9.94 9.94z"></path></g><path stroke-linejoin="round" stroke-linecap="round" d="M50.921 44.73l-6.05 6.06-3.32-3.31"></path></g></g><defs><clipPath id="B"><path d="M0 0h56.59v58.29H0z" fill="#fff"></path></clipPath><path d="M28.12 55.34c14.978 0 27.12-12.142 27.12-27.12S43.098 1.1 28.12 1.1 1 13.242 1 28.22s12.142 27.12 27.12 27.12z" id="C"></path></defs></svg>