<svg width="81" height="80" viewBox="0 0 81 80" fill="none" xmlns="http://www.w3.org/2000/svg">
<rect x="0.75" width="80" height="80" rx="40" fill="white"/>
<path d="M32.75 54.5C32.7391 52.8424 33.8096 46.41 33.1259 45.8331C31.9161 44.823 29.623 42.232 30.2095 39.6057C30.796 36.9795 24.7559 33.4158 24.7559 33.4158" stroke="#13C636" stroke-width="2" stroke-linecap="round" stroke-linejoin="round"/>
<path d="M34.9188 23.7676C34.9188 23.7676 38.2036 27.724 37.446 29.9115C36.6884 32.099 34.7728 31.8764 34.129 32.3292C33.4853 32.782 29.3734 33.5336 30.7682 34.6981C32.163 35.8627 34.3798 35.7752 35.9738 37.1061C37.5678 38.4371 37.1243 40.5305 38.5737 40.4001C40.0231 40.2697 40.7915 37.3968 42.3072 38.6624C43.823 39.9279 41.9701 43.6224 40.3783 45.5361C38.7866 47.4498 40.4302 48.3813 39.7178 49.2418C39.2211 49.742 37.446 53.5001 34.129 55.5001" stroke="#13C636" stroke-width="2" stroke-linecap="round" stroke-linejoin="round"/>
<path d="M57.3231 34.3763C57.3231 34.3763 52.6934 34.9309 51.1409 34.2083C49.5885 33.4858 46.5567 35.5619 47.432 38.7806C48.3073 41.9993 50.6678 39.9244 52.8027 41.7069C54.9375 43.4894 52.1476 45.9123 53.2649 46.8451C54.3821 47.778 55.1153 48.7585 54.3592 51.2552" stroke="#13C636" stroke-width="2" stroke-linecap="round" stroke-linejoin="round"/>
<path d="M46.4873 23.6683C46.4873 23.6683 42.8759 27.4222 43.8559 29.098C44.836 30.7738 45.7951 30.0951 46.99 29.2571C48.1849 28.419 48.2943 27.5865 49.7845 28.2751C51.2747 28.9638 53.7453 28.4059 53.7453 28.4059" stroke="#13C636" stroke-width="2" stroke-linecap="round" stroke-linejoin="round"/>
<circle cx="40.75" cy="40" r="18" stroke="#13C636" stroke-width="2"/>
</svg>
