<svg viewBox="0 0 512 512" xmlns="http://www.w3.org/2000/svg" id="Layer_1"><defs><style>.cls-1{fill:#303a48;}.cls-2{fill:#9e0000;}</style></defs><path transform="translate(0 -8.74)" d="M0,251.74a18.88,18.88,0,0,0,1.53-2.87c5.59-16.51,18.53-26.7,35.77-26.78q80-.36,159.92,0c22.13.13,37.48,16.72,37.51,39.46q.11,69.46,0,138.93c0,27,.05,54,0,81C234.69,499.76,224.6,514,208.32,519c-1.78.55-3.55,1.15-5.32,1.73H30a5.54,5.54,0,0,0-1.48-1Q7.11,513.61,1,492.22a5.77,5.77,0,0,0-1-1.48Zm32,119.6v109c0,7.17,1.26,8.42,8.41,8.43h154c6.94,0,8.37-1.44,8.37-8.54q0-108.72,0-217.44c0-7.31-1.44-8.75-8.75-8.76H40.54c-7.1,0-8.53,1.41-8.54,8.37Z" class="cls-1"></path><path transform="translate(0 -8.74)" d="M512,277.74a17.64,17.64,0,0,0-1.55,2.86c-5.59,16.54-18.45,26.7-35.75,26.78q-80,.38-159.92,0c-21.61-.13-37.41-16.32-37.46-37.95Q277,158.24,277.29,47c0-17.82,10-31.06,26.84-36.77A18.42,18.42,0,0,0,307,8.74H480c.34.29.65.79,1,.85,13.28,2,22.13,9.77,27.79,21.56,1.31,2.74,2.13,5.72,3.18,8.59ZM309.25,158.26q0,54.24,0,108.47c0,7.31,1.44,8.75,8.75,8.75H471.46c7.09,0,8.54-1.43,8.54-8.39V49.16c0-7.16-1.26-8.42-8.43-8.42H318.11c-7.63,0-8.86,1.25-8.86,9Z" class="cls-1"></path><path transform="translate(0 -8.74)" d="M307,520.74a18.85,18.85,0,0,0-2.86-1.54c-16.51-5.59-26.63-18.51-26.79-35.76q-.45-48,0-95.93c.23-21.34,16.1-37.31,37.46-37.42q79.93-.43,159.89,0c18.2.09,31.8,11.53,36.36,29.17a5.55,5.55,0,0,0,.95,1.48v110c-.64,1.44-1.39,2.84-1.92,4.33-3.78,10.77-10.83,18.48-21.42,22.81-2.81,1.14-5.77,1.92-8.66,2.86Zm87.61-32q38.75,0,77.47,0c6.43,0,7.91-1.48,7.91-7.92q0-45.24,0-90.47c0-6.93-1.45-8.35-8.57-8.35H318c-7.31,0-8.74,1.44-8.75,8.76q0,44.73,0,89.46c0,7.08,1.43,8.52,8.39,8.53Z" class="cls-2"></path><path transform="translate(0 -8.74)" d="M203,8.74c1.79.58,3.57,1.18,5.36,1.74C224,15.34,234.49,29,234.65,46.06c.3,32,.36,64,0,95.93-.24,21.36-16.07,37.27-37.48,37.4q-79.93.45-159.88,0C20.05,179.3,7.12,169.09,1.53,152.6A18.79,18.79,0,0,0,0,149.74v-111c.65-1.44,1.4-2.85,1.92-4.33A36.91,36.91,0,0,1,22.86,11.74c2.65-1.16,5.42-2,8.14-3Zm-85.51,32h-77C33.32,40.74,32,42,32,49.06v90c0,7,1.44,8.46,8.45,8.46q77,0,153.94,0c6.73,0,8.35-1.57,8.35-8.15q0-45.24,0-90.47c0-6.64-1.54-8.11-8.29-8.12Q156,40.72,117.49,40.74Z" class="cls-2"></path></svg>