<svg width="25" height="25" viewBox="0 0 25 25" fill="none" xmlns="http://www.w3.org/2000/svg">
<path d="M12.0195 10.0602C11.5251 10.0604 11.0417 10.2072 10.6307 10.4821C10.2196 10.7569 9.89931 11.1475 9.71021 11.6044C9.52111 12.0613 9.47173 12.564 9.56831 13.0489C9.66489 13.5339 9.9031 13.9793 10.2528 14.3289C10.6025 14.6784 11.048 14.9165 11.533 15.0129C12.018 15.1093 12.5207 15.0597 12.9775 14.8704C13.4343 14.6812 13.8248 14.3607 14.0995 13.9495C14.3742 13.5384 14.5208 13.055 14.5208 12.5605C14.5203 11.8974 14.2566 11.2616 13.7876 10.7928C13.3186 10.324 12.6827 10.0605 12.0195 10.0602ZM17.8653 8.13836C17.738 7.81579 17.5458 7.52281 17.3006 7.2776C17.0554 7.03239 16.7624 6.84018 16.4398 6.71289C15.4555 6.3243 13.1117 6.41148 12.0195 6.41148C10.9273 6.41148 8.58594 6.32102 7.59875 6.71289C7.27618 6.84018 6.9832 7.03239 6.73799 7.2776C6.49278 7.52281 6.30057 7.81579 6.17328 8.13836C5.78516 9.12273 5.87187 11.4688 5.87187 12.5601C5.87187 13.6513 5.78516 15.9946 6.17516 16.9823C6.30244 17.3048 6.49465 17.5978 6.73986 17.843C6.98507 18.0882 7.27805 18.2804 7.60063 18.4077C8.585 18.7963 10.9288 18.7091 12.0214 18.7091C13.1141 18.7091 15.4545 18.7996 16.4417 18.4077C16.7643 18.2804 17.0573 18.0882 17.3025 17.843C17.5477 17.5978 17.7399 17.3048 17.8672 16.9823C18.2586 15.9979 18.1686 13.6518 18.1686 12.5605C18.1686 11.4693 18.2586 9.12648 17.8672 8.13883L17.8653 8.13836ZM12.0195 16.4043C11.2593 16.4043 10.5162 16.1789 9.88406 15.7565C9.25196 15.3342 8.75929 14.7338 8.46837 14.0315C8.17744 13.3291 8.10133 12.5563 8.24964 11.8107C8.39795 11.0651 8.76403 10.3802 9.30159 9.84261C9.83915 9.30505 10.524 8.93897 11.2697 8.79065C12.0153 8.64234 12.7881 8.71846 13.4905 9.00939C14.1928 9.30031 14.7931 9.79297 15.2155 10.4251C15.6378 11.0572 15.8633 11.8003 15.8633 12.5605C15.8639 13.0655 15.7649 13.5656 15.5719 14.0322C15.379 14.4988 15.0959 14.9228 14.7388 15.2799C14.3818 15.6369 13.9578 15.92 13.4912 16.113C13.0246 16.3059 12.5245 16.4049 12.0195 16.4043ZM16.0217 9.45273C15.8443 9.45283 15.6707 9.40029 15.5231 9.30176C15.3755 9.20323 15.2605 9.06314 15.1925 8.89921C15.1245 8.73528 15.1067 8.55487 15.1412 8.3808C15.1758 8.20673 15.2612 8.04683 15.3867 7.92131C15.5121 7.79578 15.672 7.71029 15.846 7.67563C16.0201 7.64098 16.2005 7.65872 16.3645 7.72661C16.5284 7.7945 16.6686 7.9095 16.7672 8.05705C16.8658 8.2046 16.9184 8.37808 16.9184 8.55555C16.9189 8.6734 16.8962 8.79018 16.8514 8.89921C16.8067 9.00824 16.7408 9.10736 16.6577 9.19089C16.5746 9.27442 16.4758 9.34071 16.3669 9.38597C16.2581 9.43122 16.1414 9.45455 16.0236 9.45461L16.0217 9.45273ZM20.2695 2.06055H3.76953C3.17279 2.06055 2.6005 2.2976 2.17854 2.71956C1.75658 3.14151 1.51953 3.71381 1.51953 4.31055L1.51953 20.8105C1.51953 21.4073 1.75658 21.9796 2.17854 22.4015C2.6005 22.8235 3.17279 23.0605 3.76953 23.0605H20.2695C20.8663 23.0605 21.4386 22.8235 21.8605 22.4015C22.2825 21.9796 22.5195 21.4073 22.5195 20.8105V4.31055C22.5195 3.71381 22.2825 3.14151 21.8605 2.71956C21.4386 2.2976 20.8663 2.06055 20.2695 2.06055ZM19.467 15.6543C19.4066 16.8557 19.1323 17.9202 18.2553 18.7949C17.3783 19.6696 16.3147 19.9495 15.1147 20.0066C13.8767 20.0765 10.1652 20.0765 8.92719 20.0066C7.72578 19.9462 6.665 19.6715 5.78656 18.7949C4.90812 17.9184 4.63203 16.8534 4.57484 15.6543C4.505 14.4159 4.505 10.7038 4.57484 9.4668C4.63531 8.26539 4.90625 7.20086 5.78656 6.32617C6.66687 5.45148 7.73047 5.17492 8.92719 5.11773C10.1652 5.04789 13.8767 5.04789 15.1147 5.11773C16.3161 5.1782 17.3802 5.45289 18.2553 6.32945C19.1305 7.20602 19.4098 8.27102 19.467 9.47242C19.5369 10.7062 19.5369 14.4149 19.467 15.6543Z" fill="#444D5A"/>
</svg>
