<svg xmlns="http://www.w3.org/2000/svg" viewBox="0 0 132.49 181.66" fill="#f37423" xmlns:v="https://vecta.io/nano"><path d="M88.26 35.46V18.07a32.66 32.66 0 0 1 .52-7.07c1.59-6.83 8.26-11.44 15.44-11s13.16 5.95 13.65 13.09c.4 5.84.18 11.72.23 17.58v4.79h7.81c4.06.13 6.17 2.16 6.52 6.19.09 1 .05 2 .05 3v74.88c0 7.6-1.55 9.11-9.28 9.13h-5v14.83a31.47 31.47 0 0 1-.68 7.41c-1.83 6.87-8.4 11.16-15.71 10.56a14.36 14.36 0 0 1-13.28-13c-.4-5.08-.19-10.22-.24-15.33v-4.49h-7.44c-4.58-.18-6.77-2.16-6.79-6.65q-.11-39.88 0-79.75c0-4.69 2.29-6.69 7-6.78 2.25-.04 4.49 0 7.2 0zm-2.07 81h34V47.62h-34zm19.88-81.12l-.12-20.42a3.84 3.84 0 0 0-2.69-2.69c-1 0-2.8 1.62-2.83 2.58-.25 6.8-.13 13.61-.13 20.53zm-5.65 93.61c0 6.13-.12 12.07.12 18 0 .9 1.79 2.54 2.54 2.43 1.12-.17 2.89-1.55 2.93-2.48.27-5.91.13-11.84.13-17.94zM14.28 55.6V38.21a33.3 33.3 0 0 1 .52-7.07c1.59-6.83 8.26-11.45 15.44-11s13.14 5.92 13.62 13.05c.4 5.84.19 11.72.24 17.58v4.79h7.81c4.06.13 6.17 2.16 6.52 6.19.08 1 0 2 0 3q0 37.44 0 74.88c0 7.6-1.54 9.11-9.28 9.13h-5v14.82a31.55 31.55 0 0 1-.68 7.42c-1.82 6.87-8.4 11.16-15.7 10.56a14.36 14.36 0 0 1-13.28-13c-.41-5.09-.2-10.22-.25-15.34v-4.48H6.8c-4.58-.18-6.78-2.17-6.79-6.66q-.1-39.87 0-79.74c0-4.69 2.28-6.69 7.05-6.78l7.22.04zm-2.08 81h34V67.76h-34zm19.89-81.12l-.13-20.43a3.82 3.82 0 0 0-2.68-2.68c-1 0-2.8 1.61-2.84 2.58-.25 6.8-.13 13.61-.13 20.53zm-5.66 93.63c0 6.14-.11 12.08.12 18 0 .9 1.79 2.54 2.54 2.43 1.12-.17 2.89-1.55 2.93-2.48.27-5.91.14-11.84.14-18z"/><path d="M84.33 43.92h38.8v76.85h-38.8z"/></svg>