<svg viewBox="0 0 264.87 300.75" xmlns="http://www.w3.org/2000/svg" id="Layer_1"><defs><style>.cls-1{fill:#303a48;stroke:#303a48;}.cls-1,.cls-2{stroke-miterlimit:10;stroke-width:8px;}.cls-2{fill:#9e0000;stroke:#9e0000;}</style></defs><path transform="translate(-2.15 -3.97)" d="M164.27,130.71,123.11,89.59Q108.68,75.16,94.25,60.74c-4.37-4.38-4.4-6.36-.14-10.63q19.58-19.59,39.18-39.18c4-4,6.4-3.94,10.41.07q33.51,33.48,67,67a39.31,39.31,0,0,1,2.75,3.52c6.75-6.85,12.82-13.32,19.22-19.42,8.9-8.5,23-5,26.6,6.48a24.06,24.06,0,0,1,.92,6.27q1.49,44,2.86,87.93c.31,10-6.72,17.37-16.64,17.09q-45.45-1.31-90.89-3c-6.61-.24-11.3-3.82-13.78-9.85-2.54-6.18-1.62-12.13,3.06-17C151,143.55,157.52,137.36,164.27,130.71ZM104,56c.92.82,2,1.68,3,2.64q33.49,33.47,66.95,67c3.92,3.92,3.9,6.17,0,10.09-6.87,6.9-13.72,13.8-20.65,20.64-2,1.95-3.2,4.39-1.7,6.64a8.23,8.23,0,0,0,5.55,3.4c29.53,1.18,59.07,2.11,88.61,3.05,4.86.16,7-2,6.87-6.68q-1.38-44-2.83-87.89c-.09-2.77-.7-5.3-3.52-6.46s-5.2.08-7.3,2.22c-6.46,6.59-13,13.09-19.55,19.61-4.77,4.78-6.56,4.76-11.41-.08L141.51,23.65c-.95-.94-1.93-1.85-2.74-2.62Z" class="cls-1"></path><path transform="translate(-2.15 -3.97)" d="M105,178l39,39q15.61,15.62,31.22,31.24c4,4,4,6.14,0,10.1q-19.71,19.74-39.44,39.44c-4,4-6.28,3.91-10.37-.18q-33.36-33.35-66.7-66.72c-1-1-1.81-2-3.11-3.53-6.28,6.35-12.28,12.41-18.27,18.5-3.91,4-8.54,5.93-14.16,5.24-7.11-.86-13-6.13-13.69-13.23-.8-8.56-.92-17.19-1.22-25.79Q7.17,179,6.16,145.85c-.3-10.09,6.83-17.34,17.05-17,29.93.88,59.85,1.93,89.77,2.94,6.93.23,11.91,3.65,14.51,10s1.38,12.36-3.38,17.29C118,165.38,111.56,171.5,105,178Zm60,75c-.67-.71-1.58-1.71-2.54-2.66q-33.45-33.5-66.92-67c-4.27-4.28-4.24-6.28.07-10.6,6.78-6.8,13.54-13.63,20.36-20.38,2-2,3.18-4.42,1.66-6.65a8.24,8.24,0,0,0-5.57-3.35c-29.53-1.18-59.07-2.12-88.62-3.07-4.85-.15-7,2-6.82,6.72q1.38,44,2.82,87.9c.09,2.78.73,5.29,3.56,6.43s5.21-.14,7.29-2.27c6.48-6.58,13-13.07,19.57-19.59,4.78-4.77,6.53-4.77,11.4.11L127.71,285c.94.94,1.93,1.85,2.7,2.59Z" class="cls-2"></path></svg>