<svg width="25" height="25" viewBox="0 0 25 25" fill="none" xmlns="http://www.w3.org/2000/svg">
<path d="M6.22016 21.5601H1.86641V7.53977H6.22016V21.5601ZM4.04094 5.62727C2.64875 5.62727 1.51953 4.47414 1.51953 3.08195C1.51953 2.41323 1.78518 1.77191 2.25803 1.29905C2.73089 0.826194 3.37222 0.560547 4.04094 0.560547C4.70966 0.560547 5.35099 0.826194 5.82384 1.29905C6.2967 1.77191 6.56234 2.41323 6.56234 3.08195C6.56234 4.47414 5.43266 5.62727 4.04094 5.62727ZM22.5148 21.5601H18.1705V14.7351C18.1705 13.1085 18.1377 11.0226 15.9069 11.0226C13.6433 11.0226 13.2964 12.7898 13.2964 14.6179V21.5601H8.94734V7.53977H13.123V9.45227H13.1839C13.7652 8.3507 15.185 7.1882 17.3033 7.1882C21.7095 7.1882 22.5195 10.0898 22.5195 13.8585V21.5601H22.5148Z" fill="#444D5A"/>
</svg>
