<svg viewBox="0 0 357.41 357.64" xmlns="http://www.w3.org/2000/svg" id="Layer_1"><defs><style>.cls-1{fill:#303a48;stroke:#303a48;}.cls-1,.cls-2{stroke-miterlimit:10;stroke-width:6px;}.cls-2{fill:#9e0000;stroke:#9e0000;}</style></defs><path transform="translate(-2.09 -12.28)" d="M340.47,350.81c2.9,0,5.39-.12,7.86,0,4.85.29,8.21,3.68,8.18,8.05s-3.39,7.64-8.26,8c-1.12.08-2.24,0-3.37,0q-164.13,0-328.28,0a25.8,25.8,0,0,1-5.2-.36,7.86,7.86,0,0,1-6.3-7.76,7.69,7.69,0,0,1,6.45-7.62,95.27,95.27,0,0,1,9.59-.56V233.73c0-8.3,2.34-10.61,10.71-10.61h74.87c7.68,0,10.26,2.63,10.26,10.43q0,56.34,0,112.69v4.31h15.9v-3.72q0-80.5,0-161c0-8.25,2.4-10.63,10.73-10.64h74.86c7.71,0,10.24,2.59,10.24,10.38q0,80.31,0,160.62v4.34h15.9v-4.42q0-103.71,0-207.42c0-1.25-.07-2.51.05-3.74.48-4.67,3.4-7.63,8.08-7.64q39.87-.1,79.73,0c4.91,0,7.72,3.08,7.95,8,.06,1.25,0,2.5,0,3.75V350.81ZM324.4,143.35H261V350.63H324.4ZM149,191.25V350.54h63.61V191.25ZM100.66,350.64V239.32H37.26V350.64Z" class="cls-1"></path><path transform="translate(-2.09 -12.28)" d="M326.39,31.43H286.75c-6.37,0-10.05-3-10.1-8s3.66-8.1,10-8.11q25.45,0,50.9,0c3.37,0,6.74-.08,10.1,0,6.51.21,9.93,4.39,8.38,10.71q-7.68,31.37-15.66,62.66c-1.25,4.92-5.51,7.51-9.8,6.3-4.46-1.25-6.78-5.41-5.58-10.28,3.06-12.43,6.18-24.84,9.49-38.12-4.21,3.5-7.79,6.5-11.39,9.46q-116.9,96-264.85,127.35c-14.24,3-28.69,5.11-43,7.52-5.17.87-9.17-2-10-6.68-.73-4.43,2.2-8.06,7.33-9.07,22.83-4.48,45.93-7.91,68.45-13.62C160.41,141.4,232.57,106,297.51,56c9.94-7.65,19.54-15.75,29.3-23.64Z" class="cls-2"></path></svg>