<svg viewBox="0 0 408.95 408.85" xmlns="http://www.w3.org/2000/svg" id="Layer_1"><defs><style>.cls-1{fill:#303a48;}.cls-2{fill:#9e0000;}</style></defs><path transform="translate(0 -7.28)" d="M219.62,416.12H188.48a9.9,9.9,0,0,0-2-.79c-8.78-1.37-17.69-2.2-26.35-4.13a204.15,204.15,0,0,1-158-170.1C1.55,236.88.73,232.68,0,228.47V194.94a10.26,10.26,0,0,0,.84-2.36,207.19,207.19,0,0,1,11.58-51.13A204.74,204.74,0,0,1,264.93,16.36C366,47.29,427.1,152.3,404.12,255.61A204.28,204.28,0,0,1,228.33,414.66C225.41,415,222.52,415.63,219.62,416.12Zm-15-25.55c98.74-.14,178.79-80.27,178.74-178.92S303.19,32.89,204.5,32.84,25.33,113.23,25.56,212,106,390.7,204.6,390.57Z" class="cls-1"></path><path transform="translate(0 -7.28)" d="M140.54,211.89a25.54,25.54,0,1,1-25.16-25.71A25.74,25.74,0,0,1,140.54,211.89Z" class="cls-2"></path><path transform="translate(0 -7.28)" d="M230,211.65a25.53,25.53,0,1,1-25.38-25.47A25.73,25.73,0,0,1,230,211.65Z" class="cls-2"></path><path transform="translate(0 -7.28)" d="M293.73,237.23a25.53,25.53,0,1,1,25.7-25.16A25.74,25.74,0,0,1,293.73,237.23Z" class="cls-2"></path></svg>