<svg xmlns="http://www.w3.org/2000/svg" xmlns:xlink="http://www.w3.org/1999/xlink" width="100.4" height="97.1" xmlns:v="https://vecta.io/nano"><style><![CDATA[.B{fill-rule:evenodd}.C{fill:#002951}.D{fill-opacity:0}.E{stroke:#002951}.F{stroke-dasharray:0 0 0 0}]]></style><defs><path id="A" d="M0 0h100.4v97.1H0z"/><mask id="B" maskUnits="userSpaceOnUse"><path fill="#000" d="M0 0h100.4v97.1H0z"/><use fill="#fff" xlink:href="#A"/></mask><path id="C" d="M91.8 96.6H8.6C4.1 96.6.5 93 .5 88.5V8.6C.5 4.1 4.1.5 8.6.5h83.2c4.5 0 8.1 3.6 8.1 8.1v79.9c0 4.5-3.6 8.1-8.1 8.1z" class="B"/><circle id="D" cx="51.2" cy="77.9" r="17.3"/><circle id="E" cx="51.2" cy="77.9" r="6.9"/><path id="F" d="M20.3 84.1c-4.4 0-8-3.6-8-8s3.6-8 8-8H80c4.4 0 8 3.6 8 8s-3.6 8-8 8H20.3z"/></defs><use fill="none" xlink:href="#A"/><g mask="url(#B)"><use fill="#e7ebee" xlink:href="#C"/><use xlink:href="#C" class="D E F"/><use xlink:href="#F" class="B C"/><path d="M20.3 67.5H80c4.7 0 8.5 3.8 8.5 8.5s-3.8 8.5-8.5 8.5H20.3c-4.7 0-8.5-3.8-8.5-8.5s3.8-8.5 8.5-8.5zM87.5 76c0-4.1-3.3-7.5-7.5-7.5H20.3c-4.1 0-7.5 3.4-7.5 7.5s3.3 7.5 7.5 7.5H80c4.1 0 7.5-3.4 7.5-7.5z" class="B C"/><use xlink:href="#F" y="1.3" fill="#ff7200" class="B"/><use fill="#fff" fill-opacity=".5" xlink:href="#D"/><use xlink:href="#D" class="D E F"/><use fill="#fff" xlink:href="#E"/><use xlink:href="#E" class="D E F"/><g opacity=".2"><path fill="#36414a" d="M10 27.1h79.2v10.7H10z"/></g><g opacity=".2"><path fill="#36414a" d="M27.1 41.5h45.2v3.3H27.1z"/></g><path d="M52.9 91.3l-2.6-15 13.5 7.1-10.9 7.9z" class="B C"/><path transform="rotate(323.99 58.937 87.856)" d="M56.987 82.106h3.9v11.5h-3.9z" class="C"/></g></svg>