<svg xmlns="http://www.w3.org/2000/svg" viewBox="0 0 408.94 408.71" xmlns:v="https://vecta.io/nano"><path d="M228.35 408.71l-13.29-3c-22.55-4.94-41.69-16.06-57.93-32.28Q96.19 312.57 35.32 251.62C16 232.29 4.38 209.14.87 182a11.62 11.62 0 0 0-.87-2.44v-23.95l4-17.56a112.74 112.74 0 0 1 30.24-52.52c9.89-9.81 24.19-9.29 34.58.88l25.42 25.39L127 144.54c11.13 11.15 12.12 22.25 3.16 35.35q-11.7 17.11-23.4 34.23c-4.1 6-3.84 8.86 1.22 13.95l16.66 16.65c2.67 2.64 4 5.68 2.8 9.36a7.74 7.74 0 0 1-12.72 3.07c-7.54-7.15-15.14-14.28-21.8-22.15-6.24-7.41-6.55-16.26-2.32-25.07.79-1.66 1.85-3.19 3.13-5.36l-10.82-10.36q-16.56-16.47-33-33a19.15 19.15 0 0 1-3.29-4c-1.85-3.29-1.17-6.46 1.29-9.18a7.68 7.68 0 0 1 9.48-1.26 22.73 22.73 0 0 1 4 3.32l41.53 41.55 16.2-24.3c2.26-3.57 1.16-6.91-2.55-10.63Q95.22 135.34 73.89 114L57.78 97.93c-4.76-4.68-9.12-4.54-13.7.32-38.29 40.56-37.56 101.54 2.06 141.49l122.84 122.72c29.65 29.08 64.93 37.06 104.68 24.65a8.15 8.15 0 0 0 1.26-.67l-2.73-3q-19.76-19.73-39.51-39.44a22.18 22.18 0 0 1-3.07-3.64 7.6 7.6 0 0 1 .95-9.53 7.76 7.76 0 0 1 9.82-1.15 22.22 22.22 0 0 1 3.62 3.1q21.9 21.84 43.77 43.73c.93.93 1.9 1.82 3.64 3.49 6.86-5.6 13.86-11 20.48-16.85 3.13-2.77 2.92-7.08.37-10.48a17.88 17.88 0 0 0-1.59-1.78q-29.35-29.35-58.72-58.7c-4.43-4.43-7.71-4.67-13.06-1l-35.56 24.26c-12.05 8.2-23.43 7.14-33.76-3.1l-10.71-10.74c-3.73-3.92-4-8.36-.76-11.71s8-3.35 12 .46c3.67 3.48 7.16 7.13 10.76 10.69 4.77 4.72 7.84 5.05 13.34 1.3l35.2-24.08c12.4-8.47 23.77-7.41 34.4 3.21q28.82 28.77 57.59 57.58c12.16 12.19 11.66 26.55-1 38.21-19.39 17.79-42.14 28.18-68.39 30.78-.44 0-.84.43-1.26.66zm51.35-228.35c-.06-11.22-.68-22.08-.05-32.88 1.07-18.53 17.69-33.37 36-33 19 .38 34.62 14.76 35.55 33.48.53 10.56 0 21.17-.06 32.07 3.49 1.16 8.31 2.2 12.61 4.31 11.54 5.68 17.82 15.27 18.6 28.09.44 7.24.08 14.54.08 22.74 7.64-6.29 10.33-13.79 10.35-22.48q.06-30.33 0-60.67 0-21.95 0-43.9c0-17.65-11.24-28.9-28.89-29-5.19 0-10.38.1-15.56-.09a7.83 7.83 0 0 1-7.91-7.42 7.28 7.28 0 0 1 6.66-8C360 62.81 373 61.39 385 67.76c14.6 7.75 23.39 19.94 23.6 36.62l.06 111.35c-.2 22.36-19.09 40.75-41.51 41.25-6.25.14-12.51.18-18.76 0a8.89 8.89 0 0 0-7.32 2.92l-24 24c-3 3-6.23 5.2-10.58 3.38-4.19-1.76-4.92-5.44-4.83-9.59.14-6.75 0-13.5 0-20.63-10.53 0-20.74.19-30.94-.06-6.87-.18-13.93-.12-20.55-1.68-17.68-4.14-31.21-21-31.34-39.13V104.04c.21-21.91 18.84-39.79 41.58-40.79 6.25-.28 12.51-.18 18.76-.06 5.78.11 9.25 3.42 9.09 8.34-.15 4.74-3.53 7.51-9.33 7.62-6.64.13-13.34-.25-19.92.44-14.7 1.54-24.18 12.3-24.33 27.12v33.13q0 36.91 0 73.84c0 10.17 4.37 18 13.52 23.94 0-6.92.29-13.12-.05-19.29-1-18.84 10.34-34.46 30.28-37.7a10.57 10.57 0 0 0 1.27-.27zm86.79 60.69c.06-.94.12-1.46.12-2l-.07-25.15a17.31 17.31 0 0 0-13.38-16.76 66.55 66.55 0 0 0-9.78-1.82 6.86 6.86 0 0 0-4.55 1.13C324.14 208 306.9 208 292 196.37c-.87-.69-2.13-1.55-3-1.39-4.44.76-9 1.39-13.2 2.92-7.33 2.67-11.2 8.38-11.43 16.16-.24 8.11-.08 16.23-.06 24.34a22.64 22.64 0 0 0 .3 2.65h43c7.14 0 10.11 3 10.17 10.24v9.84l15.47-15.85a12.78 12.78 0 0 1 10.16-4.28c7.59.18 15.14.05 23.08.05zm-70.8-81.18h-.28c0 3.59-.18 7.19 0 10.76a20.08 20.08 0 0 0 19.88 18.51c10.42.06 19.45-7.94 20-18.26a206 206 0 0 0 0-21.52c-.5-10.39-8.2-17.9-18.64-18.76a19.73 19.73 0 0 0-20.93 15.76c-.72 4.36-.03 9-.03 13.51z" fill="#303a48"/><path d="M200.6 93.81v6.73a7.75 7.75 0 0 1-7.66 7.18 7.65 7.65 0 0 1-7.74-6.62c-1.16-7.59-1.49-15.36-3.26-22.8-8.4-35.15-39.94-60.84-76.07-62.3-7.19-.29-11-3.29-10.79-8.38S99.39-.29 106.49 0c47.51 2.15 87.12 38.44 93.16 85.47.41 3.16.72 6.32.95 8.34zm-94.08-56c31.57 2.16 56.8 28.66 57.16 60.26.07 5.83-2.88 9.52-7.7 9.64s-8.09-3.42-8.25-9.24c-.69-24.94-20.66-44-42.82-44.58a19.46 19.46 0 0 1-3.94-.54 8 8 0 0 1-5.92-7.59 7.8 7.8 0 0 1 6-7.51 41.92 41.92 0 0 1 5.47-.44zm22.9 60.41c.18 5.22-2.57 8.77-7.18 9.25-4 .43-7.77-2.42-8.4-7.2-1-7.19-4.42-11.23-11.91-11.89a7.61 7.61 0 0 1-6.66-8.46 8.25 8.25 0 0 1 9-7.19 26.67 26.67 0 0 1 25.15 25.49zm189.12-26.91a8 8 0 0 1-15.92 0 8 8 0 1 1 15.92 0zm-175.98 195a7.88 7.88 0 1 1 .24 15.75 7.88 7.88 0 0 1-.24-15.75z" fill="#ff7200"/></svg>