<svg xmlns="http://www.w3.org/2000/svg" xmlns:xlink="http://www.w3.org/1999/xlink" width="82.831" height="72.074" xmlns:v="https://vecta.io/nano"><style><![CDATA[.B{stroke:#002951}.C{stroke-dasharray:0 0 0 0}.D{stroke-width:2}.E{fill-rule:evenodd}.F{fill-opacity:0}.G{fill:#002951}.H{fill:#e7ebee}]]></style><defs><path id="A" d="M6.765 10.737h69.3v50.6h-69.3z"/><mask id="B" maskUnits="userSpaceOnUse"><path fill="#000" d="M0 0h82.831v72.074H0z"/><use fill="#fff" xlink:href="#A"/></mask><path id="C" d="M31.665 60.337c-3.6 0-6.8-2.1-8.3-5.3l-3.8-8.2c-.7-1.5.4-3.1 2-3.1h4.4c.9 0 1.6.5 2 1.3l5.7 12.2c.7 1.5-.4 3.1-2 3.1z" class="E"/><path id="D" d="M31.965 53.337c-2.1 0-3.9-1.2-4.8-3l-2.2-4.7c-.4-.9.2-1.9 1.1-1.9h2.6c.5 0 .9.3 1.2.7l3.3 7c.3.9-.3 1.9-1.2 1.9z" class="E"/><path id="E" d="M15.865 43.637c-4.5 0-8.1-3.6-8.1-8.1v-4c0-4.5 3.6-8.1 8.1-8.1s8.1 3.6 8.1 8.1v4c0 4.5-3.6 8.1-8.1 8.1z" class="E"/><path id="F" d="M33.265 21.937v23.1l16.2 5.5v-34l-16.2 5.4z" class="E"/><path id="G" d="M33.765 45.437h-12.7c-2 0-3.6-1.6-3.6-3.6v-16.6c0-2 1.6-3.6 3.6-3.6h12.7v23.8z" class="E"/><path id="H" d="M50.565 55.737c-.7 0-1.3-.6-1.3-1.3v-41.4c0-.7.6-1.3 1.3-1.3s1.3.6 1.3 1.3v41.5c0 .7-.6 1.2-1.3 1.2z" class="E"/><path id="I" d="M54.265 37.937h-1.3v-8.5h1.3c.7 0 1.3.6 1.3 1.3v6c-.1.7-.7 1.2-1.3 1.2z" class="E"/></defs><g transform="rotate(339 41.415 36.037)"><use fill="none" xlink:href="#A"/><g mask="url(#B)"><use xlink:href="#C" class="G"/><use xlink:href="#C" class="B C D F"/><use xlink:href="#D" class="H"/><use xlink:href="#D" class="B C D F"/><use xlink:href="#E" class="H"/><use xlink:href="#E" class="B C D F"/><use xlink:href="#F" class="H"/><use xlink:href="#F" class="B C D F"/><use fill="#fa6" xlink:href="#G"/><use xlink:href="#G" class="B C D F"/><use xlink:href="#H" class="G"/><use xlink:href="#H" class="B C D F"/><use xlink:href="#I" class="G"/><use xlink:href="#I" class="B C D F"/><path fill="none" d="M20.765 36.737v6m3.2-6v6" class="B C D"/><path fill="none" stroke-linecap="round" d="M59.865 24.637c5.2 5.2 5.2 13.6 0 18.7m7.3-26c9.2 9.2 9.2 24.1 0 33.3" class="B C D"/></g></g></svg>