<svg width="80" height="80" viewBox="0 0 80 80" fill="none" xmlns="http://www.w3.org/2000/svg">
<path d="M19.5425 42.2726C19.5425 54.142 34.0299 62.0549 38.5046 64.2665C38.7886 64.4097 39.1078 64.4676 39.4239 64.4332C39.7427 64.4111 40.0582 64.3552 40.3653 64.2665C44.5853 62.1771 58.5631 54.2642 59.3163 42.2726C59.3163 41.5169 59.7815 29.1808 59.9587 25.4355C59.9564 25.1803 59.8582 24.9355 59.6836 24.75C59.509 24.5645 59.271 24.4521 59.0172 24.4352C51.9997 24.1922 45.2847 21.5089 40.022 16.8446C39.944 16.7531 39.8472 16.6797 39.7382 16.6293C39.6292 16.5789 39.5106 16.5528 39.3906 16.5528C39.2707 16.5528 39.1521 16.5789 39.0431 16.6293C38.9341 16.6797 38.8373 16.7531 38.7593 16.8446C33.6054 21.5753 26.9136 24.265 19.9302 24.413C19.8071 24.413 19.6852 24.4375 19.5716 24.4851C19.458 24.5327 19.3549 24.6025 19.2684 24.6904C19.1818 24.7782 19.1135 24.8825 19.0674 24.997C19.0213 25.1116 18.9984 25.2341 18.9998 25.3577V25.3577C19.1327 27.6137 19.5425 42.2726 19.5425 42.2726Z" stroke="#13C636" stroke-width="2" stroke-linecap="round" stroke-linejoin="round"/>
<path d="M30.0597 38.9091C29.8439 40.8749 30.2159 42.8606 31.1286 44.6151C32.0413 46.3695 33.4538 47.814 35.1873 48.7657C36.9209 49.7175 38.8978 50.1339 40.8679 49.9623C42.8381 49.7906 44.7132 49.0386 46.2561 47.8014C47.7989 46.5642 48.9403 44.8972 49.5358 43.0114C50.1314 41.1255 50.1544 39.1054 49.6019 37.2065C49.0494 35.3076 47.9463 33.6151 46.432 32.3431C44.9178 31.071 43.0603 30.2765 41.0945 30.0601C39.7889 29.9163 38.4677 30.0312 37.2065 30.3981C35.9453 30.765 34.7687 31.3769 33.744 32.1986C32.7192 33.0203 31.8664 34.0359 31.2343 35.1873C30.6021 36.3387 30.203 37.6034 30.0597 38.9091Z" stroke="#13C636" stroke-width="2" stroke-linecap="round" stroke-linejoin="round"/>
<path d="M35 39.669L38.2955 43L45 37" stroke="#13C636" stroke-width="2" stroke-linecap="round" stroke-linejoin="round"/>
</svg>
