<svg width="25" height="25" viewBox="0 0 25 25" fill="none" xmlns="http://www.w3.org/2000/svg">
<path d="M9.46484 14.8809C8.81797 14.8809 8.29766 14.3605 8.29766 13.7277C8.29766 13.0809 8.81797 12.5605 9.46484 12.5605C10.1023 12.5605 10.618 13.0809 10.618 13.7277C10.618 14.3652 10.0977 14.8809 9.46484 14.8809ZM23.6445 12.5605C23.6445 18.9824 18.4414 24.1855 12.0195 24.1855C5.59766 24.1855 0.394531 18.9824 0.394531 12.5605C0.394531 6.13867 5.59766 0.935547 12.0195 0.935547C18.4414 0.935547 23.6445 6.13867 23.6445 12.5605ZM17.443 10.6293C17.0023 10.6293 16.6133 10.8121 16.3273 11.098C15.2773 10.3715 13.8617 9.90273 12.2914 9.85117L13.107 6.18086L15.7039 6.7668C15.7039 7.4043 16.2242 7.91992 16.857 7.91992C17.5039 7.91992 18.0242 7.39023 18.0242 6.75273C18.0242 6.11523 17.5039 5.58555 16.857 5.58555C16.4023 5.58555 16.0133 5.85742 15.8211 6.23242L12.9523 5.59492C12.8117 5.55742 12.6664 5.66055 12.6289 5.80117L11.7336 9.85117C10.1773 9.9168 8.77578 10.3809 7.72578 11.1074C7.43984 10.8074 7.03672 10.6293 6.59609 10.6293C4.96016 10.6293 4.42578 12.8277 5.92109 13.573C5.86953 13.8074 5.84141 14.0512 5.84141 14.2996C5.84141 16.7652 8.61641 18.7621 12.0289 18.7621C15.4555 18.7621 18.2305 16.7652 18.2305 14.2996C18.2305 14.0512 18.2023 13.7934 18.1414 13.559C19.6086 12.809 19.0695 10.6293 17.443 10.6293ZM14.2133 16.0762C13.3602 16.9293 10.6461 16.9152 9.82578 16.0762C9.72266 15.973 9.53984 15.973 9.43672 16.0762C9.31953 16.1934 9.31953 16.3762 9.43672 16.4793C10.5055 17.548 13.5289 17.548 14.6023 16.4793C14.7195 16.3762 14.7195 16.1934 14.6023 16.0762C14.4992 15.973 14.3164 15.973 14.2133 16.0762ZM14.5742 12.5605C13.9367 12.5605 13.4211 13.0809 13.4211 13.7277C13.4211 14.3652 13.9414 14.8809 14.5742 14.8809C15.2211 14.8809 15.7414 14.3605 15.7414 13.7277C15.7414 13.0809 15.2258 12.5605 14.5742 12.5605Z" fill="#444D5A"/>
</svg>
