<svg width="81" height="80" viewBox="0 0 81 80" fill="none" xmlns="http://www.w3.org/2000/svg">
<rect x="0.75" width="80" height="80" rx="40" fill="white"/>
<path d="M31.6407 41.006L32.8255 41.99L35.2986 39.1026" stroke="#13C636" stroke-width="2" stroke-linecap="round" stroke-linejoin="round"/>
<path d="M27.4684 52.2963L28.6661 53.2739L31.1392 50.3864" stroke="#13C636" stroke-width="2" stroke-linecap="round" stroke-linejoin="round"/>
<path d="M37.7501 43H45.7501" stroke="#13C636" stroke-width="2" stroke-linecap="round" stroke-linejoin="round"/>
<path d="M33.7501 54H46.7501" stroke="#13C636" stroke-width="2" stroke-linecap="round" stroke-linejoin="round"/>
<path d="M38.7501 40H51.7501" stroke="#13C636" stroke-width="2" stroke-linecap="round" stroke-linejoin="round"/>
<path d="M39.7501 31L52.7501 31" stroke="#13C636" stroke-width="2" stroke-linecap="round" stroke-linejoin="round"/>
<path d="M34.7501 51H48.7501" stroke="#13C636" stroke-width="2" stroke-linecap="round" stroke-linejoin="round"/>
<path d="M33.4757 30.855L34.6605 31.8391L37.1336 28.9517" stroke="#13C636" stroke-width="2" stroke-linecap="round" stroke-linejoin="round"/>
<path d="M52.8081 54.2783L61.2244 54.479C61.4842 54.4853 61.732 54.5895 61.9181 54.7708C62.1042 54.9521 62.2149 55.1971 62.2279 55.4566C62.3132 56.8744 62.2851 58.2968 62.1437 59.7101C61.9236 60.9208 61.1467 62.2998 58.0392 62.4163C54.9316 62.5328 52.3161 60.2993 52.6657 55.1912C53.0476 49.8695 56.1682 47.0338 58.2852 33.6325C59.6771 24.873 58.6995 15.3237 54.9963 15.3237C50.9177 15.3237 50.8594 19.5837 51.0212 21.5518C51.0508 21.7858 50.9873 22.0221 50.8445 22.2097C50.7016 22.3974 50.4907 22.5215 50.2573 22.5553H22.6971C21.9914 22.5553 20.58 21.4547 20.593 18.7032C20.6152 17.9846 20.8428 17.2874 21.249 16.6942C21.6552 16.101 22.2229 15.6366 22.8848 15.3561H55.0352" stroke="#13C636" stroke-width="2" stroke-linecap="round" stroke-linejoin="round"/>
<path d="M58.0455 62.4163L26.3224 62.1314C23.5256 61.8789 18.5535 55.9034 25.2672 43.9457C30.4011 34.8107 27.1188 22.5812 27.1188 22.5812" stroke="#13C636" stroke-width="2" stroke-linecap="round" stroke-linejoin="round"/>
</svg>
