<svg width="81" height="80" viewBox="0 0 81 80" fill="none" xmlns="http://www.w3.org/2000/svg">
<path d="M45.9264 34.1113C45.0782 35.1373 43.9452 35.8886 42.6707 36.2702C41.3962 36.6518 40.0373 36.6466 38.7657 36.2553C37.4941 35.864 36.3669 35.1042 35.5266 34.0718C34.6862 33.0394 34.1704 31.7807 34.0442 30.4549C33.9181 29.1291 34.1874 27.7957 34.818 26.623C35.4486 25.4503 36.4122 24.4911 37.5872 23.8666C38.7621 23.242 40.0956 22.9801 41.4192 23.114C42.7427 23.2479 43.9969 23.7716 45.0233 24.6188C45.7083 25.1802 46.2757 25.8715 46.693 26.6531C47.1103 27.4346 47.3693 28.291 47.455 29.1731C47.5408 30.0551 47.4517 30.9454 47.1928 31.7929C46.9339 32.6403 46.5103 33.4282 45.9463 34.1113" stroke="#13C636" stroke-width="2" stroke-linecap="round" stroke-linejoin="round"/>
<path d="M26.0103 38.3281C25.4231 39.0384 24.6387 39.5585 23.7564 39.8227C22.874 40.0869 21.9332 40.0833 21.0529 39.8124C20.1726 39.5415 19.3922 39.0155 18.8104 38.3007C18.2286 37.586 17.8715 36.7146 17.7842 35.7968C17.6969 34.8789 17.8833 33.9557 18.3198 33.1439C18.7564 32.332 19.4236 31.668 20.237 31.2356C21.0504 30.8032 21.9736 30.6219 22.8899 30.7146C23.8062 30.8073 24.6745 31.1698 25.3851 31.7564C25.8593 32.145 26.2521 32.6236 26.541 33.1647C26.8299 33.7058 27.0092 34.2987 27.0686 34.9093C27.1279 35.52 27.0662 36.1363 26.887 36.723C26.7078 37.3097 26.4145 37.8552 26.0241 38.3281" stroke="#13C636" stroke-width="2" stroke-linecap="round" stroke-linejoin="round"/>
<path d="M61.2478 38.3281C60.6606 39.0384 59.8763 39.5585 58.9939 39.8227C58.1116 40.0869 57.1708 40.0833 56.2904 39.8124C55.4101 39.5415 54.6297 39.0155 54.0479 38.3007C53.4662 37.586 53.109 36.7146 53.0217 35.7968C52.9344 34.8789 53.1208 33.9557 53.5574 33.1439C53.994 32.332 54.6611 31.668 55.4745 31.2356C56.2879 30.8032 57.2111 30.6219 58.1274 30.7146C59.0438 30.8073 59.9121 31.1698 60.6226 31.7564C61.0968 32.145 61.4897 32.6236 61.7786 33.1647C62.0675 33.7058 62.2467 34.2987 62.3061 34.9093C62.3655 35.52 62.3038 36.1363 62.1245 36.723C61.9453 37.3097 61.6521 37.8552 61.2616 38.3281" stroke="#13C636" stroke-width="2" stroke-linecap="round" stroke-linejoin="round"/>
<path d="M30.749 45.5116C32.3877 43.6385 34.5765 42.267 37.0388 41.5703C39.5011 40.8736 42.1265 40.883 44.5831 41.5974C47.0398 42.3118 49.2175 43.6991 50.841 45.5839C52.4646 47.4687 53.7048 49.7444 53.7048 52.1871M27.7957 54.5273C27.7957 52.6296 27.8022 51.2916 28.3024 49.7444C28.8026 48.1972 29.621 46.7588 30.7105 45.5116" stroke="#13C636" stroke-width="2" stroke-linecap="round" stroke-linejoin="round"/>
<path d="M15.4132 46.8416C16.593 45.4929 18.1689 44.5054 19.9418 44.0038C21.7147 43.5022 23.6049 43.509 25.3737 44.0233C27.1425 44.5377 28.8324 45.7181 29.3506 46.2363" stroke="#13C636" stroke-width="2" stroke-linecap="round" stroke-linejoin="round"/>
<path d="M51.1142 45.7181C51.6324 45.2 52.3691 44.5055 54.1419 44.0039C55.9148 43.5022 57.8051 43.509 59.5738 44.0234C61.3426 44.5378 62.9106 45.5366 64.0795 46.8937C65.6233 48.6859 65.6233 49.1413 65.6233 50.9" stroke="#13C636" stroke-width="2" stroke-linecap="round" stroke-linejoin="round"/>
<path d="M27.7952 53.6062V62.8183M53.7043 52.4546V62.8183" stroke="#13C636" stroke-width="2" stroke-linecap="round" stroke-linejoin="round"/>
</svg>
