<svg xmlns="http://www.w3.org/2000/svg" xmlns:xlink="http://www.w3.org/1999/xlink" width="86.1" height="83.5" xmlns:v="https://vecta.io/nano"><style><![CDATA[.B{fill-rule:evenodd}.C{stroke-dasharray:0 0 0 0}]]></style><defs><path id="A" d="M0 0h86.1v83.5H0z"/><mask id="B" maskUnits="userSpaceOnUse"><path fill="#000" d="M0 0h86.1v83.5H0z"/><use fill="#fff" xlink:href="#A"/></mask><path id="C" d="M34 34V.5H.5V34" class="B"/><path id="D" d="M52.1 49.5h33.5V83H49.8" class="B"/></defs><use fill="none" xlink:href="#A"/><g mask="url(#B)"><use fill="#e7ebee" xlink:href="#C"/><use fill-opacity="0" stroke="#002951" xlink:href="#C" class="C"/><use fill="#e7ebee" xlink:href="#D"/><use fill-opacity="0" stroke="#002951" xlink:href="#D" class="C"/><circle cx="40.5" cy="45.2" fill="#ff7200" r="34.1"/><path fill="#36414a" d="M38.7 65.9c-1.1 0-2.1-.4-2.9-1.2L18 46.9c-.8-.8-1.2-1.8-1.2-2.9s.4-2.1 1.2-2.9 1.8-1.2 2.9-1.2 2.1.4 2.9 1.2L38.7 56l32.6-32.6c.8-.8 1.8-1.2 2.9-1.2s2.1.4 2.9 1.2c1.6 1.6 1.6 4.2 0 5.7L41.5 64.7c-.7.7-1.8 1.2-2.8 1.2z" class="B"/><path fill="#36414a" d="M71 23c.9-.9 2-1.3 3.2-1.3 1.1 0 2.3.5 3.1 1.4 1.8 1.7 1.8 4.6 0 6.4L41.8 65c-.9.9-2.1 1.3-3.2 1.3s-2.3-.4-3.2-1.3L17.7 47.2c-1.8-1.7-1.8-4.6 0-6.4.9-.9 2.1-1.3 3.2-1.3s2.3.4 3.2 1.3l14.6 14.6L71 23zm5.7.7c-.7-.6-1.5-1-2.5-1s-1.9.4-2.6 1.1L39.3 56.1l-.7.7-.7-.7-14.5-14.5c-.7-.6-1.6-1-2.5-1s-1.8.3-2.5 1c-.6.7-1 1.6-1 2.5s.3 1.8 1 2.5l17.8 17.7c.7.6 1.6 1 2.5 1s1.8-.3 2.5-1l35.5-35.6c.6-.7 1-1.5 1-2.5 0-.9-.3-1.8-1-2.5z" class="B"/><path fill="#fff" d="M38.7 64.3c-1.2 0-2.3-.4-3.2-1.3L17.7 45.2c-1.8-1.8-1.8-4.7 0-6.4 1.8-1.8 4.7-1.8 6.4 0l14.5 14.5L70.9 21c1.8-1.8 4.7-1.8 6.4 0 1.8 1.8 1.8 4.7 0 6.4L41.9 63c-.9.8-2.1 1.3-3.2 1.3z" class="B"/></g></svg>