<svg xmlns="http://www.w3.org/2000/svg" xmlns:xlink="http://www.w3.org/1999/xlink" width="100.4" height="101.6" xmlns:v="https://vecta.io/nano"><defs><path id="A" d="M0 0h100.4v101.6H0z"/><mask id="B" maskUnits="userSpaceOnUse"><path fill="#000" d="M0 0h100.4v101.6H0z"/><use fill="#fff" xlink:href="#A"/></mask></defs><use fill="none" xlink:href="#A"/><g mask="url(#B)"><path fill="#e7ebee" fill-rule="evenodd" d="M67.1 73.6H34.9c-4 0-7.2-3.2-7.2-7.2V34.1c0-4 3.2-7.2 7.2-7.2h32.3c4 0 7.2 3.2 7.2 7.2v32.3c-.1 4-3.3 7.2-7.3 7.2z"/><circle cx="19.2" cy="19.2" fill="#ff7200" r="19.2"/><circle cx="81.2" cy="82.4" fill="#335474" r="19.2"/><circle cx="81.2" cy="82.4" fill="#335474" r="19.2"/><path fill="#ff7200" fill-rule="evenodd" d="M82.2 46.7V28.6c0-5.8-4.8-10.5-10.8-10.5H45.2v1.1h26.3c5.3 0 9.7 4.2 9.7 9.5v18.1L76.5 45c2.1 2.4 4 6.2 5.2 9.3 1.1-3.1 3.1-6.9 5.2-9.3l-4.7 1.7z"/><path fill="#335474" fill-rule="evenodd" d="M18.3 54.1v18.1c0 5.8 4.8 10.5 10.8 10.5h26.3v-1.1H29c-5.3 0-9.7-4.2-9.7-9.5v-18l4.6 1.7c-2.1-2.4-4-6.2-5.2-9.3-1.1 3.1-3.1 6.9-5.2 9.3l4.8-1.7z"/><g opacity=".8"><path fill="#fff" fill-rule="evenodd" d="M80.9 94.2v-3c-1.8 0-3.7-.6-4.8-1.4l.8-2.1c1.1.8 2.8 1.3 4.5 1.3 2.2 0 3.7-1.3 3.7-3.1 0-1.7-1.2-2.8-3.5-3.7-3.2-1.3-5.2-2.7-5.2-5.4 0-2.6 1.9-4.6 4.7-5.1v-3.2H83v3c1.9.1 3.2.6 4.1 1.1l-.8 2.1c-.7-.4-1.9-1.1-4-1.1-2.4 0-3.3 1.4-3.3 2.7 0 1.6 1.2 2.4 3.9 3.6 3.2 1.3 4.9 2.9 4.9 5.7 0 2.5-1.7 4.8-5 5.3v3.3h-1.9z"/></g><g opacity=".8"><path fill="#fff" d="M9.3 11.3h7.6v11H9.3z"/><path fill="#fff" d="M11.2 8.6H15v16.5h-3.8zm11.4 5.2h3.8v4.3h-3.8zm0 12.2h3.8v4.3h-3.8z"/><path fill="#fff" fill-rule="evenodd" d="M20.7 16.5h7.6v11h-7.6v-11zm5.6 9v-7h-3.6v7h3.6z"/></g></g></svg>