<svg xmlns="http://www.w3.org/2000/svg" viewBox="0 0 381.77 383.26" fill="#9e0000"><path d="M155.66 383.26l-15.89-2.87a165 165 0 0 1-78.23-36.52c-30.25-25.32-50.25-57.24-57.81-96C-7.93 188 7.8 135.75 50.46 92.19c26.08-26.64 58.19-42.55 95.09-47.73 47.12-6.62 89.95 4.54 128.09 33.21l3.23 2.42c0-7.19.29-14-.07-20.75-.56-10.7 3.21-19.33 10.89-26.7 9.9-9.5 19.48-19.33 29.14-29.08 2.62-2.64 5.34-4.53 9.25-3 3.67 1.4 4.72 4.33 5 8l3 39.16 20.71 1.66 19.4 1.45c3.48.22 5.92 1.77 7.13 5s.12 5.88-2.16 8.16l-32.88 32.74a28.56 28.56 0 0 1-21 8.19c-7.56-.07-15.13 0-23.17 0l6.53 8.79c23.92 33.83 34.75 71.4 31.33 112.73-6.34 76.43-61.07 138-136.23 153.5-6.2 1.28-12.57 1.75-18.85 2.64a5.41 5.41 0 0 0-1.49.69zm117.59-286.2c-54.32-50.36-146.6-55.9-208.75 2.31C1.25 158.6-1.9 256.67 56.86 319c59.29 62.85 157.37 66 219.67 7.19 63.09-59.58 64.83-156.65 8.27-218l-17.1 17.33c.27.35.7.93 1.16 1.48 28.26 33.57 38.23 71.95 28.94 114.77-15.57 71.84-89.62 116.65-160.71 97.78-78.34-20.8-119.34-106.53-86-180.4 3.6-8 8.62-15.4 13.3-22.87a7.23 7.23 0 0 1 10.47-2.09c3.43 2.4 4.11 6.69 1.68 10.59-.52.84-1.12 1.64-1.68 2.47C57.4 173 50.93 201.26 56 231.88a115.87 115.87 0 0 0 130.55 95.84c75.59-10.71 120.48-91.13 89.91-161.1a112.35 112.35 0 0 0-19.44-30.36l-17.34 17.23c.63.78 1.44 1.74 2.19 2.73q29 38.25 15.49 84.33c-1.45 5-5.31 7.2-9.6 5.86s-6.16-5.2-4.66-10.19a78.14 78.14 0 0 0 3.09-31.76 75.35 75.35 0 0 0-17.1-40.23l-17.25 17.19c19.47 27.67 9 58.15-9.82 72.62a52 52 0 0 1-73.92-71.49 50.53 50.53 0 0 1 29.72-20.06c15.36-3.74 29.56-.68 42.26 7.84l17.44-17.48c-15.8-12-33.71-17.73-53.88-16-52.13 4.41-84.62 59.3-63.32 107a76.51 76.51 0 0 0 103.08 37.93 12.33 12.33 0 0 1 5.67-1.44 6.73 6.73 0 0 1 6.5 5.72c.81 3.8-.8 6.8-4.74 8.74a90.83 90.83 0 0 1-50.81 9c-51.21-5.54-87.8-53.21-80.17-104.28 10.18-68.15 89.16-101 144.65-60.1l3.74 2.77 17.3-17.27c-1.55-1.26-3.21-2.75-5-4.07-33.1-24.23-69.24-29.85-108.28-17.44-5.23 1.66-9.43.11-10.87-4.08s.79-8.29 5.87-10a131.06 131.06 0 0 1 128.86 24.89zm-83.66 84.58c-15.62-10.53-38-6-49.35 9.74a37 37 0 0 0 58.43 45.19c12.41-14.76 9.91-35.51 1.44-44.4l-4.42 4.55-19.06 19a7.46 7.46 0 0 1-9.25 1.3c-3-1.85-4.28-4.67-3.38-8a12 12 0 0 1 3.14-4.9l22.45-22.48zM291.81 79.17l3.46-3.25c6.16-6.16 12.05-12.63 18.57-18.39 4.26-3.76 5.84-7.67 5-13.24-.92-6.39-1.14-12.89-1.71-19.93l-20.85 20.93a14.9 14.9 0 0 0-4.52 11.06l.05 22.82zm11.54 9.67l.36 1c7.94 0 15.89.22 23.81-.13a11.78 11.78 0 0 0 7.09-2.86c7.51-7.2 14.66-14.79 22.12-22.43l-25.26-1.77a4.25 4.25 0 0 0-2.88 1.19l-25.24 25zM97.74 105.63a7.47 7.47 0 1 1 0 14.93 7.3 7.3 0 0 1-7.41-7.23 7.41 7.41 0 0 1 7.41-7.7zm136.75 153.8A7.31 7.31 0 0 1 242 267a7.42 7.42 0 0 1-7.37 7.31 7.49 7.49 0 0 1-7.52-7.19 7.41 7.41 0 0 1 7.38-7.69z"></path></svg>