<svg width="25" height="25" viewBox="0 0 25 25" fill="none" xmlns="http://www.w3.org/2000/svg">
<path d="M22.5213 10.4001C20.4576 10.405 18.4445 9.76143 16.7664 8.56023V16.9377C16.7658 18.4893 16.2916 20.0038 15.4071 21.2786C14.5226 22.5534 13.2699 23.5278 11.8167 24.0714C10.3634 24.6151 8.77886 24.7021 7.27482 24.3209C5.77078 23.9397 4.41896 23.1084 3.40013 21.9381C2.3813 20.7679 1.74402 19.3145 1.5735 17.7723C1.40298 16.2301 1.70736 14.6726 2.44592 13.308C3.18449 11.9435 4.32204 10.8369 5.70647 10.1363C7.0909 9.43576 8.65622 9.17453 10.1931 9.38758V13.6012C9.48984 13.38 8.73463 13.3866 8.03535 13.6202C7.33607 13.8538 6.72849 14.3024 6.29936 14.9019C5.87023 15.5014 5.64151 16.2212 5.64585 16.9584C5.65019 17.6957 5.88738 18.4127 6.32354 19.0071C6.7597 19.6015 7.37253 20.0429 8.07451 20.2682C8.77649 20.4936 9.53173 20.4913 10.2324 20.2619C10.933 20.0324 11.5432 19.5874 11.9758 18.9904C12.4085 18.3934 12.6414 17.675 12.6414 16.9377V0.560547H16.7664C16.7635 0.908894 16.7927 1.25677 16.8536 1.59977C16.9969 2.36546 17.295 3.09386 17.7295 3.74042C18.164 4.38698 18.7258 4.9381 19.3806 5.36008C20.3122 5.97606 21.4044 6.30438 22.5213 6.30414V10.4001Z" fill="#444D5A"/>
</svg>
