<svg xmlns="http://www.w3.org/2000/svg" viewBox="0 0 287.48 359.5" xmlns:v="https://vecta.io/nano"><path d="M287.47 179.65q0-68.15 0-136.28C287.44 18.15 269.27 0 244 0Q143.74 0 43.44 0C18.23 0 0 18.19 0 43.37q0 136.47 0 272.94c0 24.94 18.26 43.15 43.24 43.16q100.49.06 201 0A47.17 47.17 0 0 0 255 358.3c19.63-4.69 32.46-21.12 32.49-41.62q.05-68.52-.02-137.03z" fill="#fefefe"/><path d="M287.47 179.65q0 68.5 0 137c0 20.5-12.86 36.93-32.49 41.62a47.17 47.17 0 0 1-10.74 1.14q-100.47.09-201 0c-25 0-43.23-18.22-43.24-43.16Q0 179.84 0 43.37C0 18.19 18.23 0 43.44 0Q143.73 0 244 0c25.24 0 43.41 18.13 43.43 43.35q.09 68.15.04 136.3zM12 179.55v135.51c0 20 12.46 32.44 32.39 32.44h198.7c20 0 32.41-12.45 32.41-32.42q0-135.33 0-270.65c0-20-12.43-32.43-32.4-32.44H44.4C24.46 12 12 24.47 12 44.41zM143.74 24h99.56c13 0 20.2 7.13 20.21 20q0 22.08 0 44.18c0 12.24-7.34 19.66-19.46 19.66q-100.3 0-200.61 0c-12 0-19.45-7.42-19.47-19.28q0-22.66 0-45.31C24 31.4 31.48 24 43.43 24q50.16 0 100.31 0zm-.05 12H43.81c-5.88 0-7.86 2-7.86 7.82q0 22.08 0 44.16c0 5.93 1.94 7.93 7.76 7.93h200.14c5.63 0 7.67-2 7.68-7.64q0-21.9 0-43.79c0-6.68-1.77-8.48-8.34-8.48zm47.96 233.47q0-23.21 0-46.43c0-11.88 7.48-19.31 19.41-19.32h33.68c11.23 0 18.74 7.65 18.75 18.86q.06 47 0 94c0 11.4-7.59 18.92-19 18.95h-34.06c-11.14-.05-18.72-7.67-18.75-18.86l-.03-47.2zm59.89.16q0-23.19 0-46.38c0-5.43-2.06-7.53-7.38-7.55q-16.46 0-32.91 0c-5.59 0-7.6 2-7.61 7.69q0 46.2 0 92.4c0 5.66 2 7.73 7.57 7.74q16.26 0 32.53 0c5.82 0 7.8-2 7.8-7.88q.02-23.01 0-46.02zM60 131.82h17.59c10.45.11 18.12 7.78 18.22 18.25q.12 11.79 0 23.59a17.84 17.84 0 0 1-18 18q-18 .15-35.93 0A17.82 17.82 0 0 1 24 173.84V149.5a17.86 17.86 0 0 1 17.66-17.66c6.11-.11 12.23-.02 18.34-.02zm-.1 47.93h17.18c4.41 0 6.71-2.29 6.75-6.66v-22.42c0-4.6-2.29-6.82-7-6.83q-17-.07-34 0c-4.66 0-6.89 2.23-6.93 6.84q-.09 11 0 22.05c0 4.83 2.23 7 7.13 7l16.87.02zm83.78 11.98h-17.59c-10.47-.12-18.17-7.78-18.27-18.22v-23.59a17.84 17.84 0 0 1 18-18.07q18-.14 35.93 0a17.81 17.81 0 0 1 17.87 17.83q.18 12.17 0 24.33A17.84 17.84 0 0 1 162 191.7c-6.1.12-12.21.02-18.32.03zm0-12h17.18c4.43 0 6.73-2.28 6.77-6.63v-22.43c0-4.61-2.28-6.84-6.92-6.85q-17-.07-34 0c-4.68 0-6.92 2.21-7 6.81q-.09 11 0 22.05c0 4.85 2.22 7 7.1 7.06l16.91.01zm83.9 12h-17.59c-10.49-.11-18.21-7.74-18.32-18.15q-.12-11.81 0-23.59c.1-10.41 7.84-18.09 18.32-18.15q17.59-.09 35.18 0c10.49.06 18.21 7.71 18.32 18.15q.13 11.79 0 23.58c-.11 10.44-7.82 18.05-18.32 18.16h-17.59zm0-12h17.19c4.4 0 6.69-2.3 6.74-6.67q.1-11.2 0-22.42c0-4.6-2.29-6.81-7-6.82q-17-.07-34 0c-4.66 0-6.89 2.23-6.93 6.85q-.07 11 0 22.05c0 4.83 2.24 7 7.14 7l16.87.03zM59.87 203.71h17.59c10.5.1 18.23 7.71 18.35 18.13q.14 11.79 0 23.59c-.11 10.44-7.81 18.1-18.3 18.17q-17.6.11-35.18 0c-10.65-.07-18.28-7.79-18.35-18.5q-.09-11.61 0-23.21c.11-10.43 7.83-18.08 18.3-18.18h17.59zm-.08 47.93h17.18c4.61 0 6.83-2.28 6.87-6.92q.07-11 0-22.06c0-4.65-2.24-6.92-6.84-6.94q-17-.08-34 0c-4.85 0-7 2.21-7 7.1q-.08 10.84 0 21.68c0 4.9 2.19 7.1 7 7.14h16.79zm83.86 11.98h-17.59c-10.46-.12-18.14-7.79-18.24-18.24v-23.59a17.83 17.83 0 0 1 18-18q18-.15 35.93 0a17.81 17.81 0 0 1 17.85 17.85q.18 12.16 0 24.33A17.85 17.85 0 0 1 162 263.6c-6.12.12-12.24.02-18.35.02zm-.25-12h17.19c4.86 0 7.06-2.22 7.09-7.07q.07-10.83 0-21.68c0-4.92-2.17-7.15-7-7.17q-17-.06-34 0c-4.64 0-6.86 2.24-6.9 6.87q-.08 11 0 22c0 4.82 2.25 7 7.16 7l16.46.07zM60 335.52H42a17.88 17.88 0 0 1-18-18.06v-24a17.81 17.81 0 0 1 17.85-17.84h35.93a17.85 17.85 0 0 1 18 18.05v24A17.86 17.86 0 0 1 78 335.5c-6 .1-12 .02-18 .02zm.28-47.93c-6 0-12-.07-17.93 0-4 .06-6.31 2.32-6.36 6.26v23.17c.05 4.15 2.36 6.44 6.55 6.46q17.37.11 34.74 0c4.19 0 6.52-2.31 6.56-6.45v-22.8c0-4.37-2.33-6.6-6.75-6.65-5.61-.04-11.21.01-16.82.01zm83.62-11.98h17.22c10.72.07 18.44 7.67 18.54 18.31q.1 11.6 0 23.21c-.1 10.68-7.76 18.31-18.49 18.37q-17.4.09-34.81 0c-10.89-.06-18.48-7.73-18.54-18.69q-.07-11.42 0-22.84c.09-10.66 7.77-18.28 18.49-18.36h17.59zm-.15 47.93h17.18c4.41 0 6.7-2.3 6.74-6.66v-22.43c0-4.6-2.29-6.81-7-6.82q-17-.08-34 0c-4.66 0-6.89 2.23-6.93 6.84q-.09 11 0 22.05c0 4.83 2.24 7 7.14 7l16.87.02z" fill="#f37423"/></svg>