<svg xmlns="http://www.w3.org/2000/svg" xmlns:xlink="http://www.w3.org/1999/xlink" viewBox="0 0 280.08 280.09" xmlns:v="https://vecta.io/nano"><path d="M140.37 179.26c1.28-12 6.44-16.66 17.54-16.66h92.83c11.34 0 17.05 5.68 17.06 17q0 31.25 0 62.5v4.63c2.24 0 4.3-.07 6.36 0 4.05.18 5.81 2 5.92 6.09.39 15.36-11.29 27.24-27 27.25q-87.21.06-174.43 0H7.53c-6 0-7.51-1.56-7.51-7.51v-41.54c.11-25.4 14.89-46.38 38.61-55.55a64.08 64.08 0 0 0 13.54-7.77c1.2-.84 1-3.71 1.36-5.66.58-3.19-.74-5.08-3.55-6.9a59.85 59.85 0 0 1-21.61-24.71c-.87-1.81-1.75-2.83-4-3.05-18.16-1.7-28-22.26-18.24-37.64a13.45 13.45 0 0 0 2.08-7.13c-.42-15.21 1.57-29.92 9.27-43.28C31.96 14.23 53.81 1.15 82.83.07c22.68-.83 42.54 5.93 58.68 22.14 14.26 14.32 21.54 31.76 21.88 52 0 1.63.08 3.25 0 4.87a21.2 21.2 0 0 0 2.92 12.28c8.78 15.06-1.45 34.37-18.74 36a4.43 4.43 0 0 0-4.1 2.94 62.63 62.63 0 0 1-22.78 25.67c-3.72 2.4-3.67 10.6.18 12.75 6.22 3.51 12.57 6.82 19.5 10.54zM11.22 269.37h120.9c-1.29-5.1-3-10.13-3.72-15.31s1.55-7.27 6.84-7.34h5.43l-.05-54.24a2.88 2.88 0 0 0-1.13-2.1c-2.6-1.57-5.31-3-7.91-4.36a7.19 7.19 0 0 0-.76 1q-5.91 14.51-11.79 29c-3 7.46-5.39 8.2-11.87 3.66l-18.64-13.13c-2.1-1.56-3.46-1.39-5.48.08-6.74 4.91-13.61 9.66-20.51 14.36-3.94 2.69-7 1.71-8.92-2.65-.7-1.6-1.31-3.23-2-4.84q-5.52-13.6-11-27.19c-14.32 4.54-27.9 20.14-29.13 36.18-1.19 15.47-.26 31.11-.26 46.88zm245.7-22.66a8.78 8.78 0 0 0 .35-1.49q0-33.48 0-67c0-4-1.53-5.18-6-5.18q-47 0-93.9 0c-5.05 0-6.16 1.1-6.17 6.11q0 32.16 0 64.33c0 1 .09 1.94.15 3.18h3.83 30.67c4.52 0 5.84 1.08 6.66 5.32.53 2.76 2 4.14 4.85 4.13 4.61 0 9.25.26 13.83-.15a6.07 6.07 0 0 0 4.37-3.05c2.26-6 2.33-6.26 8.66-6.26zM32.84 83.44c0 9-.88 17.93.17 26.63 3.09 25.5 25.62 45.27 51.15 45.73 27 .49 50.49-17.86 54.18-43.84 1.78-12.48.79-25.35 1-38 0-.16-.29-.32-.54-.58-34.54 11.85-69.75 17.91-105.96 10.06zm118.91-3.59l1.16-.66c.54-25.44-9-46.19-31.29-59.11-24.6-14.29-50.25-13.86-74.25 1.7-20.5 13.29-29.18 33.36-27.92 57.8a4.7 4.7 0 0 0 2.18-3.09c.49-4.65 3.21-6.74 7.64-5.29 22 7.23 44.23 6.14 66.56 2.6a201.22 201.22 0 0 0 45.48-12.95c5.61-2.32 8.61-.2 8.68 5.91 0 3.37-.13 6.74.08 10.09.07 1.06 1.1 2 1.68 3zm117.11 177.34l-41.42.09a4.5 4.5 0 0 0-3 2c-3.14 4.72-7.37 7.33-13.07 7.36h-15a13.49 13.49 0 0 1-12-6.98c-1.22-2.13-2.58-2.53-4.75-2.51H143.7h-4.33c1.95 7.5 7.49 12.11 14.52 12.38 2.62.11 5.24 0 7.86 0q45.65 0 91.29 0c8.18.06 14.33-4.68 15.82-12.34zm-183-66.41l19.34-20.07a7.47 7.47 0 0 0 2.17-8.06c-14.37 5-28.65 4.86-43.77-.19.6 2.69.42 5.19 1.58 6.48 6.64 7.38 13.62 14.48 20.64 21.84zm-24.6 18.44l16.61-11.64-19.98-20.81-7.87 4.78 11.2 27.67zm32.62-11.66l16.63 11.62 11.19-27.67-7.91-4.72zm55-81.29a13.33 13.33 0 0 0 10.09-12.94c.11-6.09-3.31-11.17-9-12.91 0 4.29.15 8.49 0 12.68s-.78 8.64-1.17 13.17zm-126.18-.08l-1.26-25.87a13.64 13.64 0 0 0-8.66 13.53 13.44 13.44 0 0 0 9.84 12.34z" fill="#303a48"/><g fill="#ff7200"><path d="M188.73 210.39l-12.16 18.06c-2.5 3.7-5.25 4.62-8.06 2.8s-3.12-5-.56-8.79q6.85-10.23 13.77-20.42c2.67-3.92 4.42-4.38 8.8-2.35l21.23 10c2 1 3.21.86 4.75-.87 5.25-5.83 10.68-11.51 16.06-17.22 3.19-3.4 6.21-4 8.67-1.77s2.22 5.43-.9 8.79l-19.62 21.06c-2.7 3-5.37 3.36-8.93 1.59-7.41-3.68-15.03-7.11-23.05-10.88z"/><use xlink:href="#B"/><use xlink:href="#B" x="56.88"/></g><defs ><path id="B" d="M59.87 101.85v1.12c0 4.23-1.56 6.41-4.51 6.41s-4.47-2.09-4.49-6.41v-4.1c0-3 1.6-4.84 4.49-4.84s4.44 1.88 4.5 4.84l.01 2.98z"/></defs></svg>