<svg width="24" height="25" viewBox="0 0 24 25" fill="none" xmlns="http://www.w3.org/2000/svg">
<path d="M22.4235 5.57059C21.8253 6.44559 21.1021 7.19113 20.2539 7.8072C20.2628 7.9322 20.2673 8.1197 20.2673 8.3697C20.2673 9.53041 20.0977 10.6889 19.7584 11.8451C19.4191 13.0014 18.9035 14.1108 18.2115 15.1733C17.5195 16.2358 16.6959 17.1755 15.7405 17.9925C14.7852 18.8094 13.6334 19.4612 12.2852 19.9478C10.9369 20.4344 9.49498 20.6777 7.95926 20.6777C5.53962 20.6777 3.32533 20.0304 1.31641 18.7358C1.62891 18.7715 1.97712 18.7893 2.36105 18.7893C4.36998 18.7893 6.16016 18.1733 7.73159 16.9411C6.79409 16.9233 5.9548 16.6353 5.21373 16.0773C4.47266 15.5193 3.96373 14.8072 3.68694 13.9411C3.98158 13.9858 4.25391 14.0081 4.50391 14.0081C4.88783 14.0081 5.2673 13.959 5.6423 13.8608C4.6423 13.6554 3.81417 13.1576 3.15792 12.3675C2.50167 11.5773 2.17355 10.6599 2.17355 9.61524V9.56166C2.78069 9.90095 3.43248 10.084 4.12891 10.1108C3.53962 9.71791 3.07087 9.20452 2.72266 8.57059C2.37444 7.93666 2.20033 7.24916 2.20033 6.50809C2.20033 5.72238 2.39676 4.9947 2.78962 4.32506C3.86998 5.65541 5.18471 6.72015 6.73382 7.51925C8.28292 8.31836 9.94141 8.76256 11.7093 8.85184C11.6378 8.51256 11.6021 8.1822 11.6021 7.86077C11.6021 6.66434 12.024 5.64425 12.8677 4.8005C13.7115 3.95675 14.7316 3.53488 15.928 3.53488C17.178 3.53488 18.2316 3.99024 19.0887 4.90095C20.0619 4.71345 20.9771 4.36524 21.8343 3.85631C21.5039 4.88309 20.87 5.67774 19.9325 6.24024C20.7628 6.15095 21.5932 5.92774 22.4235 5.57059Z" fill="#444D5A"/>
</svg>
