<svg xmlns="http://www.w3.org/2000/svg" viewBox="0 0 383.41 383.41" fill="#9e0000"><path d="M0 207.49v-31.44l1.61-9.67c7.46-50.85 30.9-92.83 71.23-124.63 45.93-36.21 98.31-49 155.7-37.86 53.85 10.44 95.65 39.72 125.14 85.87 25.95 40.62 34.62 85.23 27.15 132.75-5.77 36.71-21.36 69.06-46.23 96.67-30.77 34.19-69 55-114.55 62.07l-14.9 2.16H176l-10-1.67c-37.95-5.48-71.59-20.5-100.35-45.92q-52.56-46.4-63.51-115.73L0 207.49zm191.6-183.4C99.18 24.15 23.9 99.48 24 191.84s75.39 167.68 167.74 167.61 167.71-75.4 167.64-167.75S284 24 191.6 24.09zm-11.79 48.03h23.84v4.12q0 53.52-.06 107a7.82 7.82 0 0 0 2.58 6.14q31.59 31.41 63.06 62.93a28.69 28.69 0 0 0 2.69 2.18l-17.61 17.65a20.59 20.59 0 0 0-2.21-3Q217.08 234 182 198.94a7.5 7.5 0 0 1-2.25-4.67q-.18-60.26-.09-120.51l.15-1.64z"></path></svg>