<svg width="25" height="25" viewBox="0 0 25 25" fill="none" xmlns="http://www.w3.org/2000/svg">
<path d="M22.9207 7.06401C22.659 6.07859 21.8879 5.30251 20.9089 5.03913C19.1343 4.56055 12.0184 4.56055 12.0184 4.56055C12.0184 4.56055 4.90258 4.56055 3.12796 5.03913C2.14892 5.30255 1.37783 6.07859 1.11612 7.06401C0.640625 8.85013 0.640625 12.5767 0.640625 12.5767C0.640625 12.5767 0.640625 16.3033 1.11612 18.0894C1.37783 19.0748 2.14892 19.8186 3.12796 20.082C4.90258 20.5605 12.0184 20.5605 12.0184 20.5605C12.0184 20.5605 19.1343 20.5605 20.9089 20.082C21.8879 19.8186 22.659 19.0748 22.9207 18.0894C23.3962 16.3033 23.3962 12.5767 23.3962 12.5767C23.3962 12.5767 23.3962 8.85013 22.9207 7.06401ZM9.69113 15.9602V9.19326L15.6386 12.5768L9.69113 15.9602Z" fill="#444D5A"/>
</svg>
